<ttFont>
          <CharString index="0">
            -107 callgsubr
            endchar
          </CharString>
          <CharString index="1">
            rmoveto
            -35 callgsubr
            -87 callgsubr
            hvcurveto
            81 vmoveto
            -97 callsubr
            return
          </CharString>
          <CharString index="2">
            rmoveto
            127 100 63 128 hvcurveto
            -96 callsubr
            vhcurveto
            -158 324 -55 callsubr
            return
          </CharString>
          <CharString index="3">
            rmoveto
            212 hlineto
            121 45 81 71 67 -47 61 -87 hvcurveto
            -211 hlineto
            -38 -18 19 24 24 18 19 38 hvcurveto
            84 hlineto
            131 83 64 113 51 -21 42 -35 31 hvcurveto
            62 14 40 49 63 vvcurveto
            -84 hlineto
            -6 -33 -18 -33 -52 -25 rrcurveto
            12 -30 -34 6 -36 hhcurveto
            -131 -82 -64 -113 -58 29 -47 42 -31 hvcurveto
            -28 -7 -60 -21 -59 vvcurveto
            -38 26 -27 29 -16 vhcurveto
            -31 -11 -54 -26 -75 vvcurveto
            -100 79 -27 64 vhcurveto
            118 434 rmoveto
            -84 -42 40 69 69 42 40 84 84 42 -40 -69 -69 -42 -40 -84 hvcurveto
            -110 -363 rmoveto
            -38 -25 26 40 41 25 24 38 hvcurveto
            219 hlineto
            38 26 -24 -41 -40 -33 -26 -44 hvcurveto
            endchar
          </CharString>
          <CharString index="4">
            -70 callsubr
            -266 53 callsubr
            -121 hlineto
            -70 -420 -77 callgsubr
            return
          </CharString>
          <CharString index="5">
            rmoveto
            -103 callsubr
            return
          </CharString>
          <CharString index="6">
            rmoveto
            90 hlineto
            58 79 -89 callgsubr
            return
          </CharString>
          <CharString index="7">
            rmoveto
            6 callsubr
            69 callgsubr
            -359 vlineto
            -131 64 -48 100 vhcurveto
            return
          </CharString>
          <CharString index="8">
            177 106 80 185 91 callgsubr
            -438 vlineto
            -93 callgsubr
            vhcurveto
            return
          </CharString>
          <CharString index="9">
            -99 callsubr
            endchar
          </CharString>
          <CharString index="10">
            -15 callsubr
            hvcurveto
            -90 callgsubr
            vhcurveto
            return
          </CharString>
          <CharString index="11">
            -82 callgsubr
            -168 -83 -32 callgsubr
            82 -86 169 return
          </CharString>
          <CharString index="12">
            -102 callsubr
            endchar
          </CharString>
          <CharString index="13">
            56 28 hlineto
            30 3 28 17 36 vvcurveto
            49 -52 11 -39 -21 -30 -3 -5 -21 vhcurveto
            -39 60 vlineto
            20 11 -4 -14 return
          </CharString>
          <CharString index="14">
            -91 callgsubr
            endchar
          </CharString>
          <CharString index="15">
            -735 -102 callgsubr
          </CharString>
          <CharString index="16">
            rmoveto
            242 -10 hlineto
            -131 -70 -64 -155 -157 -83 74 198 -1 102 callsubr
            199 84 75 163 129 88 -51 -114 vhcurveto
            97 hlineto
            166 -133 80 -181 -228 -118 54 callsubr
            117 -117 223 99 85 26 62 55 vhcurveto
            7 -76 rlineto
            74 357 -337 hlineto
            return
          </CharString>
          <CharString index="17">
            -311 hlineto
            -85 callsubr
            return
          </CharString>
          <CharString index="18">
            rmoveto
            163 121 56 154 hvcurveto
            -85 callgsubr
            -151 130 -55 153 vhcurveto
            return
          </CharString>
          <CharString index="19">
            -118 -70 -61 26 callsubr
            -69 61 118 vhcurveto
            438 -95 -433 vlineto
            -185 return
          </CharString>
          <CharString index="20">
            rmoveto
            54 -120 -108 53 vlineto
            -12 -44 -34 -27 -56 -12 rrcurveto
            41 -56 -75 20 -89 hhcurveto
            -78 callsubr
            -35 callgsubr
            109 -27 83 -49 59 hvcurveto
            81 31 41 62 87 vvcurveto
            -144 -435 rmoveto
            22 callgsubr
            -83 callsubr
            return
          </CharString>
          <CharString index="21">
            rmoveto
            107 50 96 113 40 hvcurveto
            173 499 rlineto
            -88 hlineto
            -84 -263 rlineto
            -21 -66 -28 -99 8 callsubr
            -35 106 -22 59 vhcurveto
            -98 263 rlineto
            -93 hlineto
            203 -526 rlineto
            -90 -25 -52 -27 -57 hhcurveto
            -35 -57 hlineto
            -5 16 20 -3 34 hhcurveto
            return
          </CharString>
          <CharString index="22">
            -62 callsubr
            -359 vlineto
            -131 64 -48 100 return
          </CharString>
          <CharString index="23">
            rmoveto
            123 91 49 99 callgsubr
            -82 callsubr
            -78 62 -76 154 vhcurveto
            return
          </CharString>
          <CharString index="24">
            4 vlineto
            198 1 93 76 150 hhcurveto
            151 93 -76 -198 1 hvcurveto
            return
          </CharString>
          <CharString index="25">
            198 -324 -69 115 vvcurveto
            29 18 42 90 88 28 -1 callsubr
            -68 66 -125 -127 -82 -57 -93 vhcurveto
            -189 324 74 -135 vvcurveto
            -51 -53 -27 -65 -74 -59 28 66 vhcurveto
            10 -87 98 callgsubr
            -6 -14 vvcurveto
            return
          </CharString>
          <CharString index="26">
            rmoveto
            -66 -39 20 60 82 104 16 154 hvcurveto
            -38 vlineto
            -94 -79 -46 -74 vhcurveto
            return
          </CharString>
          <CharString index="27">
            rmoveto
            169 92 75 190 91 callgsubr
            -208 vlineto
            -131 -71 -68 -109 -91 -48 47 92 vhcurveto
            268 -95 -263 vlineto
            -157 83 -68 136 86 65 30 66 37 vhcurveto
            7 -46 hlineto
            -126 -58 -53 -106 -88 -67 34 65 vhcurveto
            -95 -8 hlineto
            -120 105 -52 143 vhcurveto
            endchar
          </CharString>
          <CharString index="28">
            rmoveto
            150 73 83 162 hvcurveto
            463 -88 -271 vlineto
            -111 -69 -63 -86 -54 -40 25 87 vhcurveto
            333 -88 -339 vlineto
            -130 68 -49 103 71 53 23 49 35 vhcurveto
            8 -21 hlineto
            -115 -1 -49 -54 -89 hhcurveto
            -59 -52 24 61 hvcurveto
            -86 -10 hlineto
            -100 88 -47 88 callgsubr
          </CharString>
          <CharString index="29">
            -39 callgsubr
            -238 128 -117 214 return
          </CharString>
          <CharString index="30">
            -66 callsubr
            -8 vlineto
            4 callgsubr
            return
          </CharString>
          <CharString index="31">
            131 hlineto
            108 481 rlineto
            8 38 12 74 0 vvcurveto
            5 hlineto
            0 13 -68 10 -44 vhcurveto
            108 -481 rlineto
            131 hlineto
            198 53 callsubr
            -95 hlineto
            -133 97 callsubr
            -7 -24 -20 -81 8 callsubr
            -14 72 -7 33 vhcurveto
            -110 484 rlineto
            -136 hlineto
            -106 97 callsubr
            -3 -14 -17 -91 8 callsubr
            -19 81 -7 24 vhcurveto
            -138 484 rlineto
            -100 hlineto
            endchar
          </CharString>
          <CharString index="32">
            -735 -98 callgsubr
          </CharString>
          <CharString index="33">
            534 -64 callsubr
            hlineto
            return
          </CharString>
          <CharString index="34">
            189 -84 86 -159 -61 callgsubr
            return
          </CharString>
          <CharString index="35">
            -868 -95 callsubr
          </CharString>
          <CharString index="36">
            -58 callsubr
            223 -129 -58 callsubr
            return
          </CharString>
          <CharString index="37">
            -63 callgsubr
            101 hlineto
            return
          </CharString>
          <CharString index="38">
            -68 callgsubr
            endchar
          </CharString>
          <CharString index="39">
            95 283 252 hlineto
            149 -283 rlineto
            106 hlineto
            -158 297 rlineto
            79 29 47 71 94 vvcurveto
            115 -72 80 -141 vhcurveto
            -357 hlineto
            95 -320 rmoveto
            237 257 vlineto
            81 41 -42 -71 -78 -48 -46 -74 hvcurveto
            return
          </CharString>
          <CharString index="40">
            -101 callsubr
            42 -92 callsubr
          </CharString>
          <CharString index="41">
            8 vlineto
            140 46 58 106 106 46 -58 -140 vhcurveto
            return
          </CharString>
          <CharString index="42">
            23 callgsubr
            -10 -35 -24 -24 -37 -15 rrcurveto
            -76 -438 hlineto
            -93 callgsubr
            177 106 80 185 vhcurveto
            382 vlineto
            79 31 40 62 86 vvcurveto
            54 vlineto
            return
          </CharString>
          <CharString index="43">
            83 -439 226 389 83 -389 211 433 83 -528 return
          </CharString>
          <CharString index="44">
            -880 -75 callgsubr
          </CharString>
          <CharString index="45">
            -97 -66 -57 -74 -65 -44 23 89 vhcurveto
            353 -88 return
          </CharString>
          <CharString index="46">
            89 471 hlineto
            47 vlineto
            4 1 26 -35 364 -484 -36 callsubr
            hlineto
            return
          </CharString>
          <CharString index="47">
            -7 callsubr
            -41 callsubr
            rlineto
            return
          </CharString>
          <CharString index="48">
            -101 callsubr
            -285 -72 callsubr
          </CharString>
          <CharString index="49">
            rmoveto
            76 hlineto
            -62 62 callsubr
            -97 27 callgsubr
            return
          </CharString>
          <CharString index="50">
            764 -101 callgsubr
            return
          </CharString>
          <CharString index="51">
            486 723 -65 callgsubr
            return
          </CharString>
          <CharString index="52">
            rmoveto
            109 11 48 44 99 hhcurveto
            81 54 -42 -111 hvcurveto
            return
          </CharString>
          <CharString index="53">
            -58 callgsubr
            -99 -75 callsubr
          </CharString>
          <CharString index="54">
            16 22 23 36 vvcurveto
            65 -49 37 -73 -71 -51 -40 -62 vhcurveto
            -19 63 14 vlineto
            36 26 16 34 31 27 -14 -36 -33 -29 -16 -32 vhcurveto
            -32 -56 30 hlineto
            36 33 -11 -39 -39 -27 -16 -40 -41 -23 19 36 hvcurveto
            15 -63 -13 vlineto
            -69 47 -43 84 vhcurveto
            return
          </CharString>
          <CharString index="55">
            -735 -60 callgsubr
          </CharString>
          <CharString index="56">
            -125 -88 -50 -96 -9 0 -7 1 -6 return
          </CharString>
          <CharString index="57">
            -107 callgsubr
            1 -234 -28 callgsubr
          </CharString>
          <CharString index="58">
            591 -96 callgsubr
            return
          </CharString>
          <CharString index="59">
            30 callsubr
            587 -88 -591 vlineto
            -24 callgsubr
          </CharString>
          <CharString index="60">
            -11 callsubr
            -353 88 359 vlineto
            131 return
          </CharString>
          <CharString index="61">
            2 vlineto
            195 1 76 77 159 hhcurveto
            121 77 -59 -120 hvcurveto
            97 hlineto
            175 -123 85 -172 -220 -114 -10 callsubr
            return
          </CharString>
          <CharString index="62">
            588 -80 callgsubr
            return
          </CharString>
          <CharString index="63">
            736 -88 callgsubr
            return
          </CharString>
          <CharString index="64">
            rmoveto
            -51 callgsubr
          </CharString>
          <CharString index="65">
            -868 rmoveto
            -76 callsubr
          </CharString>
          <CharString index="66">
            -86 132 rlineto
            -96 66 callsubr
            return
          </CharString>
          <CharString index="67">
            rmoveto
            60 36 43 53 47 callsubr
            -53 36 -43 60 hvcurveto
            45 vmoveto
            -8 callsubr
            return
          </CharString>
          <CharString index="68">
            -61 callsubr
            endchar
          </CharString>
          <CharString index="69">
            591 -71 callsubr
            return
          </CharString>
          <CharString index="70">
            rmoveto
            125 72 69 142 hvcurveto
            487 -95 -492 vlineto
            -83 -36 -42 -66 -65 -36 37 72 vhcurveto
            30 -95 -25 vlineto
            -128 72 -67 124 vhcurveto
            endchar
          </CharString>
          <CharString index="71">
            rlineto
            81 686 -89 -462 hlineto
            -12 callsubr
            return
          </CharString>
          <CharString index="72">
            85 12 hlineto
            40 25 43 94 97 return
          </CharString>
          <CharString index="73">
            -31 callgsubr
            endchar
          </CharString>
          <CharString index="74">
            733 -101 callsubr
            return
          </CharString>
          <CharString index="75">
            rmoveto
            -68 callsubr
            endchar
          </CharString>
          <CharString index="76">
            rmoveto
            -43 callgsubr
            return
          </CharString>
          <CharString index="77">
            65 hlineto
            23 2 11 8 15 return
          </CharString>
          <CharString index="78">
            606 -94 callgsubr
            return
          </CharString>
          <CharString index="79">
            736 -71 callsubr
            return
          </CharString>
          <CharString index="80">
            -4 vlineto
            -19 callgsubr
            return
          </CharString>
          <CharString index="81">
            rmoveto
            -100 callgsubr
            -30 callsubr
            hhcurveto
            return
          </CharString>
          <CharString index="82">
            rmoveto
            85 79 32 57 48 hvcurveto
            -60 38 64 -29 95 hhcurveto
            123 98 63 128 hvcurveto
            -86 hlineto
            -85 -61 -33 -74 -100 -46 57 121 -6 vhcurveto
            373 44 hlineto
            183 -78 72 -143 -81 -60 -25 -49 -40 vhcurveto
            47 -32 -58 27 -84 hhcurveto
            -51 callsubr
            hvcurveto
            -35 callsubr
            25 -25 callgsubr
            -150 -31 -145 -127 114 -21 70 hvcurveto
            259 324 rmoveto
            109 10 46 44 94 hhcurveto
            78 51 -42 -111 hvcurveto
            -525 -251 rmoveto
            -66 -39 20 60 82 106 16 154 hvcurveto
            -38 vlineto
            -105 -81 -35 -74 vhcurveto
            endchar
          </CharString>
          <CharString index="83">
            rmoveto
            -100 -39 51 147 hvcurveto
            13 callsubr
            -4 vlineto
            -127 -39 -71 -97 vhcurveto
            return
          </CharString>
          <CharString index="84">
            rmoveto
            520 159 vlineto
            152 93 -67 -193 hvcurveto
            -2 vlineto
            30 callgsubr
            return
          </CharString>
          <CharString index="85">
            -723 -43 callsubr
          </CharString>
          <CharString index="86">
            -18 callgsubr
            29 callsubr
            return
          </CharString>
          <CharString index="87">
            -31 callsubr
            endchar
          </CharString>
          <CharString index="88">
            -16 170 -57 callsubr
            return
          </CharString>
          <CharString index="89">
            -23 callgsubr
            -254 hlineto
            return
          </CharString>
          <CharString index="90">
            159 84 86 189 return
          </CharString>
          <CharString index="91">
            rmoveto
            -22 callgsubr
            -55 26 -56 78 vhcurveto
            return
          </CharString>
          <CharString index="92">
            -151 -93 75 195 return
          </CharString>
          <CharString index="93">
            62 callgsubr
            -62 callgsubr
            hlineto
            return
          </CharString>
          <CharString index="94">
            -7 callsubr
            48 68 rlineto
            -21 37 45 -10 55 hhcurveto
            -17 callsubr
            92 -20 67 -39 45 hvcurveto
            77 108 rlineto
            -74 hlineto
            -49 -69 rlineto
            21 -37 -46 11 -55 hhcurveto
            -159 -84 -86 -189 -93 20 -68 39 -45 hvcurveto
            54 75 rmoveto
            -15 31 -7 44 56 vvcurveto
            5 vlineto
            139 46 58 106 38 30 -8 -16 23 vhcurveto
            -91 -380 rmoveto
            -38 -29 7 16 -23 hvcurveto
            220 308 rlineto
            15 -31 7 -43 -55 vvcurveto
            -5 vlineto
            -139 -46 -58 -106 vhcurveto
            endchar
          </CharString>
          <CharString index="95">
            -47 vlineto
            -4 -1 -24 32 -362 478 rlineto
            -85 return
          </CharString>
          <CharString index="96">
            97 66 57 74 65 44 -23 -89 vhcurveto
            return
          </CharString>
          <CharString index="97">
            -117 -238 return
          </CharString>
          <CharString index="98">
            65 671 84 rmoveto
            -35 -28 -3 -1 -30 hvcurveto
            78 59 45 87 117 vvcurveto
            238 -124 117 -203 -203 -124 -10 callsubr
            -117 44 -87 77 -59 vhcurveto
            1 -37 -32 3 -22 hhcurveto
            -40 -84 307 71 hlineto
            -123 25 -76 54 193 vvcurveto
            5 vlineto
            197 88 72 141 140 88 -73 -204 1 vhcurveto
            -1 -190 -76 -54 -123 -25 rrcurveto
            -71 308 84 vlineto
            endchar
          </CharString>
          <CharString index="99">
            -30 -21 23 28 28 21 23 30 30 21 -23 -28 -28 -21 -23 -30 hvcurveto
            return
          </CharString>
          <CharString index="100">
            rmoveto
            75 hlineto
            return
          </CharString>
          <CharString index="101">
            -5 callsubr
            -42 return
          </CharString>
          <CharString index="102">
            -16 332 -12 -89 callsubr
            return
          </CharString>
          <CharString index="103">
            -405 186 -11 -16 callsubr
            return
          </CharString>
          <CharString index="104">
            -868 -64 callgsubr
            return
          </CharString>
          <CharString index="105">
            rmoveto
            76 hlineto
            84 -50 callgsubr
            -97 hlineto
            return
          </CharString>
          <CharString index="106">
            -40 -41 vhcurveto
            22 callsubr
            78 return
          </CharString>
          <CharString index="107">
            rmoveto
            305 72 -305 hlineto
            return
          </CharString>
          <CharString index="108">
            -183 247 -12 -84 callsubr
            return
          </CharString>
          <CharString index="109">
            773 -58 callgsubr
            return
          </CharString>
          <CharString index="110">
            -106 -46 58 140 return
          </CharString>
          <CharString index="111">
            -868 rmoveto
            -29 callgsubr
            endchar
          </CharString>
          <CharString index="112">
            39 319 -44 callgsubr
            return
          </CharString>
          <CharString index="113">
            72 64 24 59 41 return
          </CharString>
          <CharString index="114">
            130 -45 callgsubr
            return
          </CharString>
          <CharString index="115">
            0 vvcurveto
            -5 hlineto
            0 return
          </CharString>
          <CharString index="116">
            -105 callsubr
            -191 -485 -28 callgsubr
          </CharString>
          <CharString index="117">
            52 hlineto
            48 143 rlineto
            99 -100 -108 40 vlineto
            return
          </CharString>
          <CharString index="118">
            39 333 686 rmoveto
            -254 -299 -74 -63 74 -324 -23 callgsubr
            245 -345 rmoveto
            30 callgsubr
            -159 241 173 63 -173 216 159 hlineto
            152 93 -67 -193 hvcurveto
            endchar
          </CharString>
          <CharString index="119">
            -5 callgsubr
            256 -88 hlineto
            return
          </CharString>
          <CharString index="120">
            4 vlineto
            150 40 52 99 96 40 -72 -130 vhcurveto
            return
          </CharString>
          <CharString index="121">
            -183 67 hmoveto
            88 165 hlineto
            96 91 144 -256 rlineto
            102 hlineto
            -191 319 181 207 92 callgsubr
            hlineto
            -223 -258 rlineto
            return
          </CharString>
          <CharString index="122">
            -104 callgsubr
            -44 -234 -28 callgsubr
          </CharString>
          <CharString index="123">
            -16 296 -44 callsubr
            return
          </CharString>
          <CharString index="124">
            24 32 6 8 17 hvcurveto
            58 -45 vlineto
            -30 -14 16 31 hvcurveto
            return
          </CharString>
          <CharString index="125">
            238 -129 return
          </CharString>
          <CharString index="126">
            23 callsubr
            -114 return
          </CharString>
          <CharString index="127">
            95 hlineto
            90 183 rlineto
            331 hlineto
            51 -183 rlineto
            380 83 -305 hlineto
            -63 226 rlineto
            318 83 -342 hlineto
            -59 211 rlineto
            445 83 -595 hlineto
            -120 -420 rmoveto
            168 337 rlineto
            5 hlineto
            94 -337 rlineto
            endchar
          </CharString>
          <CharString index="128">
            591 -7 callgsubr
            return
          </CharString>
          <CharString index="129">
            -9 86 vlineto
            2 1 10 7 vvcurveto
            return
          </CharString>
          <CharString index="130">
            39 79 hmoveto
            -68 callsubr
            return
          </CharString>
          <CharString index="131">
            -134 13 callgsubr
            return
          </CharString>
          <CharString index="132">
            rmoveto
            34 callgsubr
          </CharString>
          <CharString index="133">
            -118 -117 return
          </CharString>
          <CharString index="134">
            627 0 callsubr
            return
          </CharString>
          <CharString index="135">
            -183 212 -48 callgsubr
            return
          </CharString>
          <CharString index="136">
            47 71 14 67 46 -43 16 -49 3 hvcurveto
            return
          </CharString>
          <CharString index="137">
            rmoveto
            85 25 61 60 hvcurveto
            return
          </CharString>
          <CharString index="138">
            -16 296 -2 callgsubr
            return
          </CharString>
          <CharString index="139">
            141 3 callgsubr
            return
          </CharString>
          <CharString index="140">
            44 hlineto
            41 112 rlineto
            84 -85 -91 34 vlineto
            return
          </CharString>
          <CharString index="141">
            53 callgsubr
            endchar
          </CharString>
          <CharString index="142">
            736 -7 callgsubr
            return
          </CharString>
          <CharString index="143">
            hvcurveto
            7 hlineto
            return
          </CharString>
          <CharString index="144">
            -54 -11 44 73 hvcurveto
            8 vlineto
            74 11 44 54 54 11 -44 -74 vhcurveto
            -8 vlineto
            -73 -11 -44 -54 vhcurveto
            return
          </CharString>
          <CharString index="145">
            447 83 -352 603 -95 hlineto
            return
          </CharString>
          <CharString index="146">
            vhcurveto
            37 85 101 callsubr
            8 -28 return
          </CharString>
          <CharString index="147">
            -183 208 -45 callsubr
            return
          </CharString>
          <CharString index="148">
            -39 -14 27 28 28 23 28 15 14 hvcurveto
            return
          </CharString>
          <CharString index="149">
            -16 79 hmoveto
            95 200 hlineto
            154 144 223 -344 rlineto
            113 hlineto
            -270 412 261 274 rlineto
            -118 hlineto
            -363 -378 rlineto
            378 -95 vlineto
            return
          </CharString>
          <CharString index="150">
            -183 102 -45 callgsubr
            return
          </CharString>
          <CharString index="151">
            39 213 -33 callsubr
            return
          </CharString>
          <CharString index="152">
            88 callsubr
            27 28 28 23 28 15 14 hvcurveto
            4 -60 vlineto
            -29 -26 -27 -29 -49 79 callsubr
            vhcurveto
            endchar
          </CharString>
          <CharString index="153">
            79 hmoveto
            38 callsubr
            return
          </CharString>
          <CharString index="154">
            53 -36 43 -60 -60 -36 -43 -53 return
          </CharString>
          <CharString index="155">
            vhcurveto
            -12 -66 -21 callsubr
            4 25 rlineto
            return
          </CharString>
          <CharString index="156">
            rlineto
            -96 hlineto
            return
          </CharString>
          <CharString index="157">
            rmoveto
            71 hlineto
            -129 200 129 200 rlineto
            -71 hlineto
            -157 -200 rlineto
            return
          </CharString>
          <CharString index="158">
            rlineto
            42 vlineto
            -163 102 callgsubr
            -21 hlineto
            -163 -197 rlineto
            -42 vlineto
            137 return
          </CharString>
          <CharString index="159">
            51 -32 vlineto
            41 callsubr
            return
          </CharString>
          <CharString index="160">
            686 rlineto
            return
          </CharString>
          <CharString index="161">
            -10 callsubr
            -238 return
          </CharString>
          <CharString index="162">
            -350 67 hmoveto
            -36 callgsubr
            return
          </CharString>
          <CharString index="163">
            0 57 72 80 vhcurveto
            73 55 -60 71 hhcurveto
            92 45 72 0 hvcurveto
            92 vlineto
            0 -57 -72 -80 vhcurveto
            -73 -55 60 -71 hhcurveto
            -92 -45 -72 0 hvcurveto
            return
          </CharString>
          <CharString index="164">
            rmoveto
            252 56 -174 hlineto
            9 19 29 20 25 19 rrcurveto
            52 38 57 return
          </CharString>
          <CharString index="165">
            236 83 -567 -83 236 return
          </CharString>
          <CharString index="166">
            -868 25 callsubr
          </CharString>
          <CharString index="167">
            112 vhcurveto
            return
          </CharString>
          <CharString index="168">
            -72 258 hmoveto
            74 callsubr
            return
          </CharString>
          <CharString index="169">
            132 rlineto
            return
          </CharString>
          <CharString index="170">
            57 callsubr
            44 63 87 callgsubr
            return
          </CharString>
          <CharString index="171">
            -106 -46 59 143 hvcurveto
            5 vlineto
            139 46 58 106 105 46 -59 -145 1 vhcurveto
            -142 -1 -46 -58 -105 hhcurveto
            return
          </CharString>
          <CharString index="172">
            hlineto
            76 37 34 75 71 41 -37 -81 vhcurveto
            -16 88 13 vlineto
            143 -78 51 -122 -126 -74 -66 -133 vhcurveto
            return
          </CharString>
          <CharString index="173">
            hlineto
            -1 -3 return
          </CharString>
          <CharString index="174">
            rmoveto
            75 53 41 65 41 -23 28 return
          </CharString>
          <CharString index="175">
            vlineto
            137 -53 51 callsubr
            53 rlineto
            return
          </CharString>
          <CharString index="176">
            79 callsubr
            72 callgsubr
            vhcurveto
            52 callsubr
            return
          </CharString>
          <CharString index="177">
            rmoveto
            48 hlineto
            26 62 callsubr
            146 -100 -146 vlineto
            return
          </CharString>
          <CharString index="178">
            103 callsubr
            endchar
          </CharString>
          <CharString index="179">
            76 callgsubr
            hlineto
            return
          </CharString>
          <CharString index="180">
            39 79 hmoveto
            80 callsubr
            return
          </CharString>
          <CharString index="181">
            95 54 callgsubr
            hlineto
            return
          </CharString>
          <CharString index="182">
            773 -66 callgsubr
            return
          </CharString>
          <CharString index="183">
            67 -173 rmoveto
            88 233 6 hlineto
            -51 35 51 -21 74 hhcurveto
            119 81 84 191 return
          </CharString>
          <CharString index="184">
            42 hlineto
            197 163 rlineto
            21 vlineto
            -197 163 rlineto
            -42 hlineto
            58 -137 rlineto
            return
          </CharString>
          <CharString index="185">
            418 31 callgsubr
            return
          </CharString>
          <CharString index="186">
            vvcurveto
            -69 55 -21 47 return
          </CharString>
          <CharString index="187">
            95 309 374 -309 76 callgsubr
            -294 -374 294 -95 hlineto
            return
          </CharString>
          <CharString index="188">
            vlineto
            81 41 -47 -80 -81 -48 -49 -74 hvcurveto
            return
          </CharString>
          <CharString index="189">
            473 83 -473 hlineto
            endchar
          </CharString>
          <CharString index="190">
            rmoveto
            257 234 81 callsubr
            endchar
          </CharString>
          <CharString index="191">
            67 hmoveto
            80 callgsubr
            return
          </CharString>
          <CharString index="192">
            239 hlineto
            131 82 86 128 123 -72 86 -141 hvcurveto
            return
          </CharString>
          <CharString index="193">
            -55 callsubr
            endchar
          </CharString>
          <CharString index="194">
            -311 hlineto
            -62 callsubr
            return
          </CharString>
          <CharString index="195">
            95 callgsubr
            72 callgsubr
            83 callgsubr
            return
          </CharString>
          <CharString index="196">
            -350 32 221 rmoveto
            270 98 -270 hlineto
            endchar
          </CharString>
          <CharString index="197">
            51 -32 vlineto
            -39 -14 return
          </CharString>
          <CharString index="198">
            -1 3 rlineto
            return
          </CharString>
          <CharString index="199">
            95 686 return
          </CharString>
          <CharString index="200">
            625 68 callgsubr
            return
          </CharString>
          <CharString index="201">
            39 323 return
          </CharString>
          <CharString index="202">
            rlineto
            -5 hlineto
            return
          </CharString>
          <CharString index="203">
            43 38 14 49 vhcurveto
            49 vlineto
            -86 -72 -18 -94 return
          </CharString>
          <CharString index="204">
            -484 rlineto
            return
          </CharString>
          <CharString index="205">
            hvcurveto
            4 vlineto
            return
          </CharString>
          <CharString index="206">
            35 hmoveto
            476 79 -325 hlineto
            12 return
          </CharString>
          <CharString index="207">
            -27 callsubr
            vhcurveto
            return
          </CharString>
          <CharString index="208">
            hlineto
            0 -19 return
          </CharString>
          <CharString index="209">
            vhcurveto
            2 vlineto
            return
          </CharString>
          <CharString index="210">
            -723 rmoveto
            53 callgsubr
            return
          </CharString>
        <CharString name=".notdef">
          -182 0 vmoveto
          500 700 -500 hlineto
          250 -305 rmoveto
          -170 255 rlineto
          340 hlineto
          -370 -555 rmoveto
          510 vlineto
          170 -255 rlineto
          230 -255 rmoveto
          -170 255 170 255 rlineto
          -370 -555 rmoveto
          170 255 170 -255 rlineto
          endchar
        </CharString>
        <CharString name="A">
          -16 7 hmoveto
          -103 callsubr
          endchar
        </CharString>
        <CharString name="AE">
          317 -1 hmoveto
          20 callsubr
        </CharString>
        <CharString name="AEacute">
          317 462 -44 callsubr
          -549 -868 rmoveto
          20 callsubr
        </CharString>
        <CharString name="Aacute">
          16 callsubr
          -375 -72 callsubr
        </CharString>
        <CharString name="Abreve">
          -16 333 751 -69 callsubr
        </CharString>
        <CharString name="Acircumflex">
          -16 186 733 -59 callsubr
        </CharString>
        <CharString name="Adieresis">
          29 callgsubr
          -377 -72 callsubr
        </CharString>
        <CharString name="Agrave">
          31 callsubr
          -181 -865 -95 callsubr
        </CharString>
        <CharString name="Amacron">
          58 callgsubr
          -174 -844 -95 callsubr
        </CharString>
        <CharString name="Aogonek">
          -16 597 95 callgsubr
          20 23 5 9 20 hvcurveto
          51 -32 vlineto
          -29 -17 16 29 29 21 26 21 17 hvcurveto
          36 100 callgsubr
          -266 -686 rlineto
          -63 callgsubr
          -29 -23 -25 -27 -42 vvcurveto
          -69 50 -21 42 vhcurveto
          -394 448 -77 callgsubr
          endchar
        </CharString>
        <CharString name="Aring">
          -16 334 711 -40 callsubr
          -327 -756 -95 callsubr
        </CharString>
        <CharString name="Aringacute">
          -16 296 861 -88 callgsubr
          -375 -993 rmoveto
          -70 callsubr
          -260 671 rlineto
          19 17 10 26 29 vvcurveto
          47 callsubr
          -29 11 -26 19 -17 vhcurveto
          66 21 rmoveto
          -8 callsubr
          -130 -426 -77 callgsubr
          endchar
        </CharString>
        <CharString name="Atilde">
          -19 callsubr
          -163 -764 -95 callsubr
        </CharString>
        <CharString name="B">
          -16 79 hmoveto
          331 hlineto
          120 90 54 128 101 -57 55 -76 18 98 callsubr
          65 21 49 58 79 vvcurveto
          101 -77 67 -114 vhcurveto
          -331 hlineto
          95 -293 rmoveto
          210 225 vlineto
          63 42 -32 -72 -63 -45 -43 -68 hvcurveto
          -217 -310 rmoveto
          227 227 vlineto
          80 42 -38 -78 -81 -45 -30 -70 hvcurveto
          endchar
        </CharString>
        <CharString name="C">
          39 381 -12 -75 callgsubr
        </CharString>
        <CharString name="CR">
          -683 endchar
        </CharString>
        <CharString name="Cacute">
          32 callgsubr
          -28 -63 callsubr
        </CharString>
        <CharString name="Cacute.loclPLK">
          94 callsubr
          35 callsubr
          32 -63 callsubr
        </CharString>
        <CharString name="Ccaron">
          5 callsubr
          168 -63 callsubr
        </CharString>
        <CharString name="Ccedilla">
          39 381 69 rmoveto
          -160 -76 78 196 hvcurveto
          -46 callsubr
          -224 101 -117 196 -13 48 callsubr
          159 7 111 82 168 vvcurveto
          47 callgsubr
          vhcurveto
          endchar
        </CharString>
        <CharString name="Ccircumflex">
          44 callsubr
          62 -63 callsubr
        </CharString>
        <CharString name="Cdotaccent">
          39 317 75 callsubr
          64 -63 callsubr
        </CharString>
        <CharString name="D">
          39 79 hmoveto
          -41 callgsubr
          endchar
        </CharString>
        <CharString name="Dcaron">
          5 callsubr
          -134 -868 rmoveto
          -41 callgsubr
          endchar
        </CharString>
        <CharString name="Dcroat">
          11 callsubr
        </CharString>
        <CharString name="E">
          -16 79 hmoveto
          -74 callsubr
          endchar
        </CharString>
        <CharString name="Eacute">
          16 callsubr
          -303 12 callgsubr
        </CharString>
        <CharString name="Ebreve">
          -16 333 -20 callgsubr
          -254 -751 -47 callgsubr
        </CharString>
        <CharString name="Ecaron">
          44 callgsubr
          -107 12 callgsubr
        </CharString>
        <CharString name="Ecircumflex">
          -16 186 733 -34 callsubr
        </CharString>
        <CharString name="Edieresis">
          29 callgsubr
          -305 12 callgsubr
        </CharString>
        <CharString name="Edotaccent">
          -16 290 75 callsubr
          -211 12 callgsubr
        </CharString>
        <CharString name="Egrave">
          31 callsubr
          -109 -865 -47 callgsubr
        </CharString>
        <CharString name="Emacron">
          58 callgsubr
          -102 -844 -47 callgsubr
        </CharString>
        <CharString name="Eng">
          39 533 79 callgsubr
          747 -89 -462 vlineto
          -12 callsubr
          -686 89 hlineto
          2 470 rlineto
          16 -1 15 -1 16 vhcurveto
          4 1 10 -11 8 -11 10 -11 rlinecurve
          354 -485 rlineto
          -65 vlineto
          48 callgsubr
          -43 -4 callgsubr
        </CharString>
        <CharString name="Eogonek">
          -16 548 95 callgsubr
          21 22 5 9 22 83 callgsubr
          25 26 26 25 40 60 hvcurveto
          -64 callsubr
          -686 434 vlineto
          -41 -21 -22 -30 -43 vvcurveto
          -68 60 -20 38 vhcurveto
          endchar
        </CharString>
        <CharString name="Eth">
          11 callsubr
        </CharString>
        <CharString name="Euro">
          439 -12 rmoveto
          28 27 4 6 27 hvcurveto
          71 vlineto
          -5 -22 -22 -3 -24 hhcurveto
          -123 -105 57 125 -32 hvcurveto
          257 65 -268 hlineto
          -1 11 0 12 12 vvcurveto
          12 0 11 1 12 vhcurveto
          268 65 -257 hlineto
          125 32 105 57 123 hhcurveto
          24 22 -3 -5 22 hvcurveto
          71 vlineto
          7 -27 -27 3 -28 hhcurveto
          -186 -122 -92 -163 -34 hvcurveto
          -78 -65 69 hlineto
          -1 -12 0 -11 -12 vvcurveto
          -12 0 -12 1 -11 vhcurveto
          -69 -65 78 hlineto
          -163 34 122 -92 186 hhcurveto
          endchar
        </CharString>
        <CharString name="F">
          -72 79 hmoveto
          95 302 355 83 -355 218 391 83 -486 hlineto
          endchar
        </CharString>
        <CharString name="G">
          95 370 274 -84 callgsubr
        </CharString>
        <CharString name="G_tilde.loclGUA">
          95 318 795 -26 callsubr
          52 -521 -84 callgsubr
        </CharString>
        <CharString name="Gbreve">
          95 388 -20 callgsubr
          -18 -477 -84 callgsubr
        </CharString>
        <CharString name="Gcaron">
          95 431 733 rmoveto
          -72 callgsubr
          106 -135 rlineto
          23 -459 -84 callgsubr
        </CharString>
        <CharString name="Gcircumflex">
          95 389 812 rmoveto
          -89 callgsubr
          -106 -135 rlineto
          90 hlineto
          39 -459 -84 callgsubr
        </CharString>
        <CharString name="Gcommaaccent">
          95 370 274 -91 callsubr
          -25 -506 rmoveto
          37 hlineto
          -37 -81 rlineto
          45 hlineto
          43 88 rlineto
          84 -88 vlineto
          endchar
        </CharString>
        <CharString name="Gdotaccent">
          95 432 868 rmoveto
          -87 -95 87 hlineto
          -62 -499 -84 callgsubr
        </CharString>
        <CharString name="H">
          73 callsubr
          endchar
        </CharString>
        <CharString name="Hbar">
          39 79 hmoveto
          95 309 374 -309 95 526 70 72 -70 88 -95 -88 -374 88 -95 -88 -70 -72 70 hlineto
          95 -134 rmoveto
          134 374 -134 vlineto
          endchar
        </CharString>
        <CharString name="Hcircumflex">
          44 callsubr
          -240 -868 rmoveto
          80 callsubr
          endchar
        </CharString>
        <CharString name="I">
          -405 92 hmoveto
          34 callgsubr
        </CharString>
        <CharString name="IJ">
          95 92 hmoveto
          37 callgsubr
        </CharString>
        <CharString name="Iacute">
          -405 101 -44 callsubr
          -95 59 callsubr
        </CharString>
        <CharString name="Iacute_J.loclNLD">
          95 101 -44 callsubr
          428 -132 -88 callgsubr
          -609 -868 rmoveto
          37 callgsubr
        </CharString>
        <CharString name="Ibreve">
          -405 138 -20 callgsubr
          -46 -751 25 callsubr
        </CharString>
        <CharString name="Icircumflex">
          -405 -9 -33 callsubr
          -5 59 callsubr
        </CharString>
        <CharString name="Idieresis">
          -405 2 2 callsubr
          -97 59 callsubr
        </CharString>
        <CharString name="Idotaccent">
          -405 95 75 callsubr
          -3 59 callsubr
        </CharString>
        <CharString name="Igrave">
          -405 101 -2 callgsubr
          99 -865 25 callsubr
        </CharString>
        <CharString name="Imacron">
          -405 -14 39 callgsubr
          106 -844 25 callsubr
        </CharString>
        <CharString name="Iogonek">
          -405 172 -125 rmoveto
          41 callsubr
          30 686 -95 -686 1 hlineto
          -28 -25 -24 -28 -47 79 callsubr
          72 callgsubr
          vhcurveto
          51 vlineto
          endchar
        </CharString>
        <CharString name="Itilde">
          -405 -25 -57 callsubr
          117 -764 25 callsubr
        </CharString>
        <CharString name="J">
          -183 225 -12 -37 callsubr
        </CharString>
        <CharString name="Jcircumflex">
          -183 227 -33 callsubr
          -108 -880 -37 callsubr
        </CharString>
        <CharString name="K">
          42 callsubr
          endchar
        </CharString>
        <CharString name="Kcommaaccent">
          42 callsubr
          211 -916 -12 callgsubr
        </CharString>
        <CharString name="L">
          46 callsubr
          endchar
        </CharString>
        <CharString name="Lacute">
          89 -44 callsubr
          -96 -868 rmoveto
          38 callsubr
          endchar
        </CharString>
        <CharString name="Lcaron">
          46 callsubr
          241 -196 rmoveto
          33 callsubr
          endchar
        </CharString>
        <CharString name="Lcommaaccent">
          46 callsubr
          180 -916 -12 callgsubr
        </CharString>
        <CharString name="Ldot">
          46 callsubr
          272 -268 56 callgsubr
        </CharString>
        <CharString name="Lslash">
          79 hmoveto
          447 83 -352 244 hlineto
          167 111 rlineto
          82 vlineto
          -167 -111 rlineto
          277 -95 -340 vlineto
          -74 -49 rlineto
          -81 vlineto
          74 49 rlineto
          endchar
        </CharString>
        <CharString name="M">
          150 79 hmoveto
          89 453 hlineto
          28 -2 100 0 vhcurveto
          6 hlineto
          0 9 -44 8 -22 vhcurveto
          183 -515 rlineto
          79 hlineto
          186 515 rlineto
          9 26 8 40 0 vvcurveto
          7 hlineto
          -2 -128 rlineto
          -453 92 callsubr
          -140 vlineto
          -165 -468 rlineto
          -13 -35 -17 -68 0 vvcurveto
          -4 hlineto
          0 -16 61 -15 42 vhcurveto
          -164 468 rlineto
          -141 hlineto
          endchar
        </CharString>
        <CharString name="N">
          39 49 callgsubr
          endchar
        </CharString>
        <CharString name="NULL">
          -683 endchar
        </CharString>
        <CharString name="Nacute">
          32 callgsubr
          -330 -17 callgsubr
        </CharString>
        <CharString name="Nacute.loclPLK">
          94 callsubr
          35 callsubr
          -270 -17 callgsubr
        </CharString>
        <CharString name="Ncaron">
          5 callsubr
          -134 -17 callgsubr
        </CharString>
        <CharString name="Ncommaaccent">
          39 49 callgsubr
          238 -916 -12 callgsubr
        </CharString>
        <CharString name="Ntilde">
          39 197 -57 callsubr
          -118 -764 rmoveto
          -39 callsubr
        </CharString>
        <CharString name="O">
          95 389 -12 -105 callgsubr
        </CharString>
        <CharString name="OE">
          317 321 -12 rmoveto
          79 62 29 59 45 hvcurveto
          -76 439 80 -344 231 282 80 -282 215 337 80 -432 -76 vlineto
          58 -45 -62 30 -79 hhcurveto
          -172 -102 54 callsubr
          102 -117 172 hvcurveto
          13 81 rmoveto
          -123 -66 73 201 201 66 73 123 107 66 -73 -201 -201 -66 -73 -107 hvcurveto
          endchar
        </CharString>
        <CharString name="Oacute">
          95 351 -44 callsubr
          -48 -97 callgsubr
        </CharString>
        <CharString name="Oacute.loclPLK">
          95 351 35 callsubr
          12 -97 callgsubr
        </CharString>
        <CharString name="Obreve">
          95 388 -20 callgsubr
          1 -763 -105 callgsubr
        </CharString>
        <CharString name="Ocircumflex">
          95 241 733 -76 callgsubr
        </CharString>
        <CharString name="Odieresis">
          95 252 2 callsubr
          -50 -97 callgsubr
        </CharString>
        <CharString name="Ograve">
          95 351 -2 callgsubr
          146 -877 -105 callgsubr
        </CharString>
        <CharString name="Ohorn">
          95 778 774 -87 callsubr
          endchar
        </CharString>
        <CharString name="Ohungarumlaut">
          95 281 736 -9 callgsubr
          -93 -97 callgsubr
        </CharString>
        <CharString name="Omacron">
          95 236 39 callgsubr
          153 -856 -105 callgsubr
        </CharString>
        <CharString name="Oslash">
          95 47 -49 -16 callgsubr
        </CharString>
        <CharString name="Oslashacute">
          95 351 -44 callsubr
          -390 -917 -16 callgsubr
        </CharString>
        <CharString name="Otilde">
          95 225 -57 callsubr
          164 -776 -105 callgsubr
        </CharString>
        <CharString name="P">
          -16 79 hmoveto
          95 263 85 callsubr
          -334 hlineto
          95 -340 83 callsubr
        </CharString>
        <CharString name="Q">
          95 559 -130 rmoveto
          134 hlineto
          -148 144 rlineto
          119 47 68 109 173 vvcurveto
          -87 callgsubr
          16 16 1 1 15 vhcurveto
          -47 79 rmoveto
          -97 callsubr
          endchar
        </CharString>
        <CharString name="R">
          23 callsubr
          endchar
        </CharString>
        <CharString name="Racute">
          32 callgsubr
          -330 -868 -32 callsubr
        </CharString>
        <CharString name="Rcaron">
          5 callsubr
          -134 -868 -32 callsubr
        </CharString>
        <CharString name="Rcommaaccent">
          19 callsubr
          -596 -12 callgsubr
        </CharString>
        <CharString name="S">
          -5 callsubr
          endchar
        </CharString>
        <CharString name="Sacute">
          16 callsubr
          -50 -59 callgsubr
        </CharString>
        <CharString name="Sacute.loclPLK">
          -16 296 35 callsubr
          10 -59 callgsubr
        </CharString>
        <CharString name="Scaron">
          44 callgsubr
          146 -59 callgsubr
        </CharString>
        <CharString name="Scedilla">
          -16 337 95 callgsubr
          29 callsubr
          4 25 rlineto
          145 8 104 58 143 -85 callgsubr
          -142 115 -57 141 -6 vhcurveto
          -12 -66 -18 callgsubr
          endchar
        </CharString>
        <CharString name="Scircumflex">
          19 callgsubr
          40 -59 callgsubr
        </CharString>
        <CharString name="Scommaaccent">
          -6 callsubr
          -218 -12 callgsubr
        </CharString>
        <CharString name="T">
          61 callsubr
          endchar
        </CharString>
        <CharString name="Tbar">
          -72 258 hmoveto
          95 381 105 72 -105 150 58 callsubr
          -150 -105 -72 105 hlineto
          endchar
        </CharString>
        <CharString name="Tcaron">
          -72 264 -44 callgsubr
          100 -868 rmoveto
          74 callsubr
          endchar
        </CharString>
        <CharString name="Thorn">
          -16 79 hmoveto
          95 144 85 callsubr
          -239 119 -95 hlineto
          95 -459 83 callsubr
        </CharString>
        <CharString name="U">
          39 360 -12 -95 callgsubr
        </CharString>
        <CharString name="Uacute">
          32 callgsubr
          -49 -74 callgsubr
        </CharString>
        <CharString name="Ubreve">
          39 360 -20 callgsubr
          -763 vmoveto
          -98 callsubr
        </CharString>
        <CharString name="Ucircumflex">
          44 callsubr
          41 -74 callgsubr
        </CharString>
        <CharString name="Udieresis">
          39 224 773 -53 callgsubr
        </CharString>
        <CharString name="Ugrave">
          94 callsubr
          -2 callgsubr
          145 -877 -95 callgsubr
        </CharString>
        <CharString name="Uhorn">
          -57 callgsubr
          endchar
        </CharString>
        <CharString name="Uhungarumlaut">
          39 253 736 -9 callgsubr
          -94 -74 callgsubr
        </CharString>
        <CharString name="Umacron">
          39 208 39 callgsubr
          152 -856 -95 callgsubr
        </CharString>
        <CharString name="Uogonek">
          39 429 88 callsubr
          27 28 20 11 20 12 15 hvcurveto
          136 19 79 81 160 vvcurveto
          64 callgsubr
          -438 vlineto
          -88 callsubr
          105 -79 174 -1 vhcurveto
          -18 -20 -13 -25 -35 79 callsubr
          vhcurveto
          endchar
        </CharString>
        <CharString name="Uring">
          39 361 711 -40 callsubr
          -1 -768 -95 callgsubr
        </CharString>
        <CharString name="Utilde">
          39 197 -57 callsubr
          163 -776 -95 callgsubr
        </CharString>
        <CharString name="V">
          -16 271 hmoveto
          125 hlineto
          255 53 callsubr
          -98 hlineto
          -180 -497 -34 -94 95 callsubr
          -11 31 -12 30 -11 31 -181 499 rcurveline
          -103 hlineto
          endchar
        </CharString>
        <CharString name="W">
          261 209 hmoveto
          -76 callsubr
        </CharString>
        <CharString name="Wacute">
          261 434 -44 callsubr
          -311 -42 callsubr
        </CharString>
        <CharString name="Wcircumflex">
          261 324 -33 callsubr
          -221 -42 callsubr
        </CharString>
        <CharString name="Wdieresis">
          261 335 2 callsubr
          -313 -42 callsubr
        </CharString>
        <CharString name="Wgrave">
          261 434 -2 callgsubr
          -117 -865 rmoveto
          -76 callsubr
        </CharString>
        <CharString name="X">
          -16 5 hmoveto
          115 hlineto
          208 281 rlineto
          8 hlineto
          209 -281 rlineto
          117 hlineto
          -271 360 244 326 rlineto
          -114 hlineto
          -184 -245 rlineto
          -8 hlineto
          -182 245 rlineto
          -118 hlineto
          246 -327 rlineto
          endchar
        </CharString>
        <CharString name="Y">
          -16 287 hmoveto
          -52 callgsubr
        </CharString>
        <CharString name="Y.loclGUA">
          -16 327 -12 -80 callsubr
        </CharString>
        <CharString name="Yacute">
          16 callsubr
          -95 -868 -46 callgsubr
        </CharString>
        <CharString name="Yacute.loclGUA">
          16 callsubr
          -55 -880 -80 callsubr
        </CharString>
        <CharString name="Ycircumflex">
          19 callgsubr
          -5 -868 -46 callgsubr
        </CharString>
        <CharString name="Ycircumflex.loclGUA">
          19 callgsubr
          35 -880 -80 callsubr
        </CharString>
        <CharString name="Ydieresis">
          29 callgsubr
          -97 -868 -46 callgsubr
        </CharString>
        <CharString name="Ydieresis.loclGUA">
          29 callgsubr
          -57 -880 -80 callsubr
        </CharString>
        <CharString name="Ygrave">
          31 callsubr
          99 -865 -46 callgsubr
        </CharString>
        <CharString name="Ygrave.loclGUA">
          31 callsubr
          139 -877 -80 callsubr
        </CharString>
        <CharString name="Z">
          -72 23 hmoveto
          -29 callgsubr
          endchar
        </CharString>
        <CharString name="Zacute">
          -72 268 -44 callsubr
          -331 4 callsubr
        </CharString>
        <CharString name="Zacute.loclPLK">
          -72 268 35 callsubr
          -271 4 callsubr
        </CharString>
        <CharString name="Zcaron">
          -72 264 -44 callgsubr
          -135 4 callsubr
        </CharString>
        <CharString name="Zdotaccent">
          -72 262 75 callsubr
          -239 4 callsubr
        </CharString>
        <CharString name="a">
          210 -12 -107 callsubr
        </CharString>
        <CharString name="aacute">
          10 callgsubr
          -116 -99 callgsubr
        </CharString>
        <CharString name="abreve">
          277 606 -93 callsubr
        </CharString>
        <CharString name="acircumflex">
          130 588 -86 callgsubr
        </CharString>
        <CharString name="acute">
          -350 75 -48 callgsubr
          endchar
        </CharString>
        <CharString name="acute.loclPLK">
          -350 105 21 callsubr
          endchar
        </CharString>
        <CharString name="adieresis">
          32 callsubr
          -118 -99 callgsubr
        </CharString>
        <CharString name="ae">
          206 220 -12 -25 callsubr
        </CharString>
        <CharString name="aeacute">
          206 407 -48 callgsubr
          -273 -735 -25 callsubr
        </CharString>
        <CharString name="agrave">
          38 callgsubr
          78 -732 -107 callsubr
        </CharString>
        <CharString name="amacron">
          63 callgsubr
          85 -711 -107 callsubr
        </CharString>
        <CharString name="ampersand">
          -16 301 -12 rmoveto
          172 90 81 125 hvcurveto
          117 85 74 -173 -194 vlineto
          -85 -55 -43 -111 -105 -70 37 90 97 78 25 82 vhcurveto
          59 73 -61 hlineto
          -76 -68 39 81 85 75 33 87 96 69 -37 -85 hvcurveto
          -9 88 18 vlineto
          114 -104 74 -148 -152 -101 -66 -122 -81 46 -44 61 -29 vhcurveto
          -4 vlineto
          -70 -22 -52 -55 -91 vvcurveto
          -122 107 -74 151 vhcurveto
          endchar
        </CharString>
        <CharString name="aogonek">
          480 95 callgsubr
          23 22 5 9 24 83 callgsubr
          25 26 57 55 8 30 5 -106 callgsubr
          -30 callgsubr
          6 -29 15 -22 22 -13 rrcurveto
          -28 -22 -22 -29 -44 vvcurveto
          -69 51 -21 43 vhcurveto
          -247 243 -81 callsubr
          endchar
        </CharString>
        <CharString name="approxequal">
          -134 38 271 rmoveto
          56 callsubr
          -306 vmoveto
          56 callsubr
          endchar
        </CharString>
        <CharString name="aring">
          278 566 -26 callgsubr
        </CharString>
        <CharString name="aringacute">
          241 782 71 callgsubr
          -348 -26 callgsubr
        </CharString>
        <CharString name="arrowboth">
          103 callgsubr
          -53 137 rlineto
          550 hlineto
          -58 -137 rlineto
          77 callsubr
          -550 hlineto
          53 89 callgsubr
        </CharString>
        <CharString name="arrowdown">
          -183 240 -208 67 callgsubr
          737 -73 -737 93 callgsubr
          endchar
        </CharString>
        <CharString name="arrowleft">
          103 callgsubr
          -58 137 rlineto
          737 73 -737 hlineto
          58 89 callgsubr
        </CharString>
        <CharString name="arrowright">
          317 720 79 rmoveto
          77 callsubr
          -737 -73 737 hlineto
          endchar
        </CharString>
        <CharString name="arrowup">
          -183 214 -208 rmoveto
          73 737 hlineto
          137 -58 51 callsubr
          58 rlineto
          endchar
        </CharString>
        <CharString name="arrowupdn">
          -183 239 -206 67 callgsubr
          550 68 callsubr
          -550 93 callgsubr
          endchar
        </CharString>
        <CharString name="arrowupdnbse">
          -183 239 -136 67 callgsubr
          480 68 callsubr
          -480 93 callgsubr
          -1 -294 rmoveto
          350 48 -350 hlineto
          endchar
        </CharString>
        <CharString name="asciicircum">
          -214 25 294 rmoveto
          90 hlineto
          119 315 121 -315 rlineto
          90 hlineto
          -157 392 rlineto
          -107 hlineto
          endchar
        </CharString>
        <CharString name="asciitilde">
          -99 41 211 rmoveto
          0 60 73 85 vhcurveto
          78 58 -61 76 hhcurveto
          97 48 73 0 hvcurveto
          93 vlineto
          0 -60 -73 -85 vhcurveto
          -78 -58 61 -76 hhcurveto
          -97 -48 -73 0 hvcurveto
          endchar
        </CharString>
        <CharString name="asterisk">
          -294 151 362 rmoveto
          83 hlineto
          -17 119 96 -74 41 71 -112 46 112 47 -41 70 -96 -73 17 118 rlineto
          -83 hlineto
          17 -119 -96 74 -41 -70 112 -47 -112 -46 41 -71 96 74 rlineto
          endchar
        </CharString>
        <CharString name="at">
          332 483 -153 rmoveto
          48 89 11 16 46 hvcurveto
          64 vlineto
          -18 -40 -92 -14 -51 hhcurveto
          -246 -114 119 236 255 153 123 245 220 153 -93 -224 -185 -80 -50 -67 -32 -19 11 27 hvcurveto
          258 vlineto
          88 -58 50 -117 -110 -78 -45 -88 -8 0 -6 1 -6 vhcurveto
          80 11 hlineto
          37 23 39 76 83 20 -34 -48 vhcurveto
          -58 vlineto
          -175 -130 -28 -132 -115 96 -19 56 65 55 24 39 33 hvcurveto
          5 hlineto
          -37 11 28 -25 69 hhcurveto
          96 134 72 227 268 -186 109 -251 -251 -214 -117 -319 -289 163 -126 263 hvcurveto
          2 240 rmoveto
          -62 -29 18 55 75 90 14 132 hvcurveto
          -44 vlineto
          -79 -68 -39 -63 vhcurveto
          endchar
        </CharString>
        <CharString name="atilde">
          -42 callgsubr
          96 -631 -107 callsubr
        </CharString>
        <CharString name="b">
          313 -12 rmoveto
          129 79 82 193 86 callgsubr
          -723 66 hlineto
          11 71 rlineto
          6 hlineto
          -55 35 60 -28 68 hhcurveto
          -22 73 21 callgsubr
        </CharString>
        <CharString name="backslash">
          -405 206 -49 rmoveto
          71 hlineto
          -206 784 rlineto
          -70 hlineto
          endchar
        </CharString>
        <CharString name="bar">
          -423 91 -173 rmoveto
          78 896 -78 hlineto
          endchar
        </CharString>
        <CharString name="braceleft">
          -349 292 -159 rmoveto
          57 vlineto
          -40 -49 12 59 -1 hvcurveto
          -7 206 rlineto
          68 -3 -22 40 -64 hhcurveto
          10 vlineto
          64 22 40 68 3 hvcurveto
          7 206 rlineto
          59 1 49 12 40 hhcurveto
          57 vlineto
          -89 -80 -22 -126 hvcurveto
          -197 vlineto
          -45 -44 -15 -38 vhcurveto
          -84 vlineto
          38 44 -15 -45 hvcurveto
          -197 vlineto
          -126 80 -22 89 vhcurveto
          endchar
        </CharString>
        <CharString name="braceright">
          -349 42 -159 rmoveto
          89 80 22 126 hvcurveto
          197 vlineto
          45 44 15 38 vhcurveto
          84 vlineto
          -38 -44 15 45 hvcurveto
          197 vlineto
          126 -80 22 -89 vhcurveto
          -57 vlineto
          40 49 -12 -59 1 hvcurveto
          7 -206 rlineto
          -68 3 22 -40 64 hhcurveto
          -10 vlineto
          -64 -22 -40 -68 -3 hvcurveto
          -7 -206 rlineto
          -59 -1 -49 -12 -40 hhcurveto
          endchar
        </CharString>
        <CharString name="bracketleft">
          -405 63 -161 rmoveto
          188 65 -109 766 109 65 -188 hlineto
          endchar
        </CharString>
        <CharString name="bracketright">
          -405 27 -161 rmoveto
          188 896 -188 -65 109 -766 -109 hlineto
          endchar
        </CharString>
        <CharString name="breve">
          -350 166 -29 callsubr
          endchar
        </CharString>
        <CharString name="brokenbar">
          -423 91 357 rmoveto
          78 366 -78 hlineto
          -896 vmoveto
          78 366 -78 hlineto
          endchar
        </CharString>
        <CharString name="bullet">
          -333 175 220 rmoveto
          68 56 55 68 68 -56 56 -68 -68 -55 -56 -68 -68 55 -55 68 hvcurveto
          endchar
        </CharString>
        <CharString name="c">
          -183 267 -12 -60 callgsubr
        </CharString>
        <CharString name="cacute">
          28 callsubr
          -31 -52 callsubr
        </CharString>
        <CharString name="cacute.loclPLK">
          57 callgsubr
          29 -52 callsubr
        </CharString>
        <CharString name="caron">
          -350 125 -45 callsubr
          endchar
        </CharString>
        <CharString name="ccaron">
          40 callsubr
          165 -52 callsubr
        </CharString>
        <CharString name="ccedilla">
          -183 267 61 rmoveto
          -99 -42 56 142 98 callsubr
          145 45 57 96 92 26 -43 -91 vhcurveto
          90 hlineto
          134 -61 73 -147 -158 -74 -86 -189 -167 56 -87 124 -18 vhcurveto
          -12 -68 -21 callsubr
          4 24 rlineto
          143 4 55 96 107 vvcurveto
          -85 hlineto
          -87 -33 -47 -90 vhcurveto
          endchar
        </CharString>
        <CharString name="ccircumflex">
          43 callsubr
          59 -52 callsubr
        </CharString>
        <CharString name="cdotaccent">
          -183 206 66 callgsubr
          61 -52 callsubr
        </CharString>
        <CharString name="cedilla">
          -350 147 95 callgsubr
          29 callsubr
          8 47 rlineto
          -62 hlineto
          -16 -88 -18 callgsubr
          endchar
        </CharString>
        <CharString name="cent">
          258 -49 rmoveto
          51 117 hlineto
          130 11 51 92 103 vvcurveto
          -85 hlineto
          -78 -26 -46 -70 -9 vhcurveto
          401 vlineto
          70 -8 21 -43 -81 vvcurveto
          90 hlineto
          125 -54 72 -127 9 vhcurveto
          107 -51 -107 vlineto
          -142 -8 -66 -87 -179 vvcurveto
          -180 64 -86 144 -9 vhcurveto
          74 vmoveto
          -82 9 -35 58 130 vvcurveto
          8 vlineto
          129 36 59 81 9 vhcurveto
          endchar
        </CharString>
        <CharString name="circumflex">
          -350 19 -45 callgsubr
          endchar
        </CharString>
        <CharString name="colon">
          -405 90 78 callsubr
          -526 vmoveto
          35 callgsubr
          endchar
        </CharString>
        <CharString name="comma">
          -405 89 24 callsubr
          endchar
        </CharString>
        <CharString name="copyright">
          9 callgsubr
          99 vmoveto
          114 44 74 84 hvcurveto
          -64 hlineto
          -67 -26 -36 -68 -76 -32 44 110 111 34 43 74 70 20 -32 -70 vhcurveto
          68 hlineto
          102 -46 56 -112 -121 -56 -66 -144 -144 55 -65 122 vhcurveto
          endchar
        </CharString>
        <CharString name="currency">
          74 99 rmoveto
          55 58 rlineto
          -37 40 55 -18 54 hhcurveto
          54 55 18 37 40 hvcurveto
          55 -58 45 45 -54 56 rlineto
          34 42 16 54 55 vvcurveto
          55 -16 56 -34 39 vhcurveto
          55 54 -48 48 -57 -56 rlineto
          33 -38 -54 18 -53 hhcurveto
          -53 -54 -18 -33 -38 hvcurveto
          -57 56 -48 -48 55 -54 rlineto
          -34 -39 -16 -56 -55 vvcurveto
          -55 16 -54 34 -42 vhcurveto
          -54 -56 rlineto
          249 37 rmoveto
          -91 -72 79 91 89 73 79 90 90 73 -79 -89 -91 -72 -79 -91 hvcurveto
          endchar
        </CharString>
        <CharString name="d">
          -33 callgsubr
          22 73 -24 callsubr
          endchar
        </CharString>
        <CharString name="dagger">
          230 -170 rmoveto
          94 hlineto
          -20 601 65 callgsubr
          rlineto
          endchar
        </CharString>
        <CharString name="daggerdbl">
          233 -170 rmoveto
          88 hlineto
          -17 197 206 -17 rlineto
          93 vlineto
          -206 -18 20 175 -20 171 65 callgsubr
          -20 -171 20 -175 -205 18 rlineto
          -93 vlineto
          205 17 rlineto
          endchar
        </CharString>
        <CharString name="dcaron">
          -58 -33 callgsubr
          302 502 rmoveto
          33 callsubr
          -314 -534 -24 callsubr
          endchar
        </CharString>
        <CharString name="dcroat">
          555 658 rmoveto
          -66 65 -88 -65 -140 -62 140 -130 -8 callgsubr
          26 callgsubr
          596 66 hlineto
          -154 -337 rmoveto
          -127 -39 -71 -97 -100 -39 51 147 vhcurveto
          13 callsubr
          endchar
        </CharString>
        <CharString name="degree">
          -283 198 428 rmoveto
          75 60 60 75 75 -60 60 -75 -75 -60 -60 -75 -75 60 -60 75 hvcurveto
          53 vmoveto
          -45 -37 37 45 45 37 36 45 45 36 -36 -45 -45 -36 -37 -45 hvcurveto
          endchar
        </CharString>
        <CharString name="dieresis">
          -350 30 3 callgsubr
          endchar
        </CharString>
        <CharString name="divide">
          -134 224 411 rmoveto
          100 100 -100 hlineto
          -186 -297 rmoveto
          473 83 -473 hlineto
          186 -297 rmoveto
          100 100 -100 hlineto
          endchar
        </CharString>
        <CharString name="dollar">
          249 -49 rmoveto
          51 117 hlineto
          108 7 77 50 104 vvcurveto
          108 -97 29 -88 22 vhcurveto
          154 vlineto
          63 -9 22 -35 -35 vvcurveto
          22 callsubr
          73 -61 63 -111 7 vhcurveto
          107 -51 -107 vlineto
          -110 -9 -69 -55 -85 vvcurveto
          -101 92 -26 87 -23 vhcurveto
          -177 vlineto
          -61 7 -45 28 58 vvcurveto
          10 -87 vlineto
          -1 -7 0 -8 -7 vvcurveto
          -74 56 -73 138 -7 vhcurveto
          334 vmoveto
          -50 15 -38 17 40 vvcurveto
          26 15 38 73 6 vhcurveto
          51 -403 rmoveto
          163 vlineto
          53 -17 41 -21 -48 vvcurveto
          -45 -41 -26 -53 -6 vhcurveto
          endchar
        </CharString>
        <CharString name="dotaccent">
          -350 123 66 callgsubr
          endchar
        </CharString>
        <CharString name="dotbelowcomb">
          -683 -210 -173 -28 callgsubr
        </CharString>
        <CharString name="dotlessi">
          -405 95 hmoveto
          34 callsubr
        </CharString>
        <CharString name="e">
          290 -12 -103 callgsubr
        </CharString>
        <CharString name="eacute">
          10 callgsubr
          -36 -92 callgsubr
        </CharString>
        <CharString name="ebreve">
          16 callgsubr
          13 -618 -103 callgsubr
        </CharString>
        <CharString name="ecaron">
          8 callgsubr
          160 -92 callgsubr
        </CharString>
        <CharString name="ecircumflex">
          130 588 -73 callgsubr
        </CharString>
        <CharString name="edieresis">
          32 callsubr
          -38 -92 callgsubr
        </CharString>
        <CharString name="edotaccent">
          234 66 callgsubr
          56 -92 callgsubr
        </CharString>
        <CharString name="egrave">
          38 callgsubr
          158 -732 -103 callgsubr
        </CharString>
        <CharString name="eight">
          277 -12 rmoveto
          170 70 90 110 74 -33 59 -81 31 hvcurveto
          63 33 32 57 65 vvcurveto
          105 -75 86 -146 -146 -75 -86 -105 -65 32 -57 63 -33 vhcurveto
          -80 -31 -33 -59 -74 vvcurveto
          -110 70 -90 169 vhcurveto
          399 vmoveto
          -81 -52 45 74 74 51 45 82 82 51 -45 -74 -74 -52 -45 -81 hvcurveto
          -326 vmoveto
          -97 -51 49 78 78 51 48 97 98 51 -48 -78 -78 -51 -49 -98 hvcurveto
          endchar
        </CharString>
        <CharString name="ellipsis">
          317 117 hmoveto
          35 callgsubr
          333 -108 31 callgsubr
          332 -108 56 callgsubr
        </CharString>
        <CharString name="emacron">
          63 callgsubr
          165 -711 -103 callgsubr
        </CharString>
        <CharString name="emdash">
          317 233 vmoveto
          1000 75 -1000 hlineto
          endchar
        </CharString>
        <CharString name="endash">
          233 vmoveto
          556 75 -556 hlineto
          endchar
        </CharString>
        <CharString name="eng">
          382 79 callgsubr
          420 vlineto
          131 -64 48 -100 -72 -64 -24 -59 -41 vhcurveto
          36 callgsubr
          -526 62 callgsubr
          -11 callsubr
          -418 vlineto
          -24 callgsubr
        </CharString>
        <CharString name="eogonek">
          451 95 callgsubr
          22 21 5 9 23 83 callgsubr
          32 33 45 27 45 19 23 hvcurveto
          25 30 13 39 1 49 rrcurveto
          -96 callsubr
          31 30 5 10 27 vhcurveto
          -12 -18 -13 -32 -38 vvcurveto
          -75 50 -22 48 vhcurveto
          -319 494 86 callsubr
        </CharString>
        <CharString name="equal">
          -99 56 318 rmoveto
          473 84 -473 hlineto
          -296 vmoveto
          82 callsubr
        </CharString>
        <CharString name="equivalence">
          -100 57 432 rmoveto
          472 84 -472 hlineto
          -297 vmoveto
          472 84 -472 hlineto
          -296 vmoveto
          104 callgsubr
        </CharString>
        <CharString name="estimated">
          -83 302 -12 rmoveto
          104 78 50 80 42 hvcurveto
          -34 21 rlineto
          -67 -34 -68 -42 -88 hhcurveto
          -62 -50 19 34 -37 hvcurveto
          165 406 5 vlineto
          165 -98 120 -159 -160 -97 -116 -159 -159 97 -116 160 vhcurveto
          -149 302 rmoveto
          152 vlineto
          34 37 50 20 62 hhcurveto
          61 50 -20 -35 38 hvcurveto
          -151 vlineto
          endchar
        </CharString>
        <CharString name="eth">
          367 619 rmoveto
          93 6 rlineto
          60 vlineto
          -152 -10 -18 17 -18 15 -21 16 rlinecurve
          -98 hlineto
          -2 -4 24 -18 23 -16 21 -17 rlinecurve
          -99 -8 rlineto
          -60 vlineto
          152 12 28 -27 23 -28 19 -29 rlinecurve
          -1 -1 rlineto
          6 -23 -25 5 -29 hhcurveto
          -133 -96 -81 -194 -189 84 -86 159 -17 callsubr
          145 -62 114 -92 97 hvcurveto
          -89 -558 rmoveto
          64 callsubr
          endchar
        </CharString>
        <CharString name="exclam">
          -405 109 171 82 callgsubr
          7 -686 56 callgsubr
        </CharString>
        <CharString name="exclamdbl">
          -183 109 171 82 callgsubr
          246 -515 82 callgsubr
          -213 -686 31 callgsubr
          220 -108 56 callgsubr
        </CharString>
        <CharString name="exclamdown">
          -350 117 78 callsubr
          -7 -686 rmoveto
          114 hlineto
          -26 515 rlineto
          -62 hlineto
          endchar
        </CharString>
        <CharString name="f">
          -405 15 callgsubr
          endchar
        </CharString>
        <CharString name="f_f">
          501 658 rmoveto
          14 callgsubr
          -190 84 vlineto
          -3 callgsubr
          -453 88 453 190 -453 88 453 101 73 -101 84 vlineto
          31 16 17 33 vhcurveto
          endchar
        </CharString>
        <CharString name="fi">
          -183 15 callgsubr
          259 172 70 callgsubr
          endchar
        </CharString>
        <CharString name="five">
          276 -12 rmoveto
          147 91 85 151 151 -94 71 -118 -77 -49 -28 -25 -31 hvcurveto
          16 209 rlineto
          317 84 -390 hlineto
          -28 -380 81 -13 rlineto
          47 28 54 32 61 hhcurveto
          83 56 -53 -95 -111 -61 -53 -86 -85 -65 59 94 hvcurveto
          -90 hlineto
          -140 95 -85 145 vhcurveto
          endchar
        </CharString>
        <CharString name="fiveeighths">
          151 108 -12 0 callgsubr
          -485 -376 rmoveto
          78 49 46 80 81 -51 38 -63 -30 -22 -7 -9 -16 hvcurveto
          6 79 rlineto
          158 56 -211 hlineto
          -15 -186 54 -9 rlineto
          14 17 17 6 23 hhcurveto
          40 29 -18 -45 -48 -26 -23 -37 -37 -29 24 41 hvcurveto
          -63 hlineto
          -74 51 -46 78 vhcurveto
          493 -334 -56 callgsubr
        </CharString>
        <CharString name="fl">
          -183 15 callgsubr
          259 -453 rmoveto
          80 callgsubr
          endchar
        </CharString>
        <CharString name="florin">
          111 -183 rmoveto
          90 37 61 60 13 hvcurveto
          99 464 rlineto
          101 hlineto
          15 73 rlineto
          -101 hlineto
          29 135 rlineto
          31 7 19 17 33 hhcurveto
          52 hlineto
          13 61 rlineto
          7 -16 -29 5 -27 hhcurveto
          -90 -37 -61 -60 -13 hvcurveto
          -29 -135 rlineto
          -77 hlineto
          -15 -73 rlineto
          77 hlineto
          -99 -464 rlineto
          -31 -7 -19 -17 -33 hhcurveto
          -52 hlineto
          -13 -61 rlineto
          -7 16 29 -5 27 hhcurveto
          endchar
        </CharString>
        <CharString name="four">
          344 hmoveto
          88 169 91 73 -91 354 -47 hlineto
          -14 -52 -10 -33 -17 -44 rrcurveto
          -225 -233 vlineto
          41 55 110 217 42 184 rrcurveto
          -95 hlineto
          -38 -168 -63 -145 -83 -142 rrcurveto
          -74 319 vlineto
          endchar
        </CharString>
        <CharString name="fraction">
          84 callgsubr
        </CharString>
        <CharString name="franc">
          79 hmoveto
          90 312 131 -312 88 249 hlineto
          99 57 35 62 39 callsubr
          -66 -32 -47 -44 -16 vhcurveto
          -6 hlineto
          -10 79 rlineto
          -67 -79 -131 226 258 75 -348 hlineto
          endchar
        </CharString>
        <CharString name="g">
          161 -182 -104 callsubr
        </CharString>
        <CharString name="g_tilde.loclGUA">
          -42 callgsubr
          47 -801 -104 callsubr
        </CharString>
        <CharString name="gbreve">
          16 callgsubr
          -116 -788 -104 callsubr
        </CharString>
        <CharString name="gcaron">
          8 callgsubr
          31 -83 callgsubr
        </CharString>
        <CharString name="gcircumflex">
          7 callsubr
          -75 -83 callgsubr
        </CharString>
        <CharString name="gcommaaccent">
          237 608 rmoveto
          88 91 -37 hlineto
          37 81 rlineto
          -45 hlineto
          -43 -88 rlineto
          -76 -874 -104 callsubr
        </CharString>
        <CharString name="gdotaccent">
          234 66 callgsubr
          -73 -83 callgsubr
        </CharString>
        <CharString name="germandbls">
          -72 64 hmoveto
          89 518 hlineto
          95 61 49 99 98 54 -48 -66 -70 -60 -55 -74 vhcurveto
          -94 -73 104 hlineto
          84 66 -60 -77 -75 -62 -64 -78 hvcurveto
          -114 -74 124 hlineto
          122 98 89 117 92 -61 67 -84 26 98 callsubr
          72 24 47 60 75 vvcurveto
          105 -93 76 -148 -135 -115 -63 -156 vhcurveto
          endchar
        </CharString>
        <CharString name="grave">
          -350 183 -10 callgsubr
          endchar
        </CharString>
        <CharString name="greater">
          -99 55 4 rmoveto
          474 196 rlineto
          107 vlineto
          -474 102 callgsubr
          -90 vlineto
          393 -160 -393 -160 rlineto
          endchar
        </CharString>
        <CharString name="greaterequal">
          -134 38 124 rmoveto
          473 196 rlineto
          107 vlineto
          -473 102 callgsubr
          -90 vlineto
          392 -160 -392 -160 rlineto
          -214 vmoveto
          82 callsubr
        </CharString>
        <CharString name="guillemotleft">
          221 126 50 callsubr
          352 -200 50 callsubr
          endchar
        </CharString>
        <CharString name="guillemotright">
          64 126 51 callgsubr
          66 -200 51 callgsubr
          endchar
        </CharString>
        <CharString name="guilsinglleft">
          -350 212 126 50 callsubr
          endchar
        </CharString>
        <CharString name="guilsinglright">
          -350 50 126 51 callgsubr
          endchar
        </CharString>
        <CharString name="h">
          67 hmoveto
          12 callsubr
          endchar
        </CharString>
        <CharString name="hbar">
          67 hmoveto
          -5 callgsubr
          129 140 62 -140 65 -88 -65 -66 -62 66 hlineto
          endchar
        </CharString>
        <CharString name="hcircumflex">
          -37 748 -101 callsubr
          -2 -883 rmoveto
          12 callsubr
          endchar
        </CharString>
        <CharString name="hookabovecomb">
          -683 -199 -49 callsubr
          endchar
        </CharString>
        <CharString name="house">
          -79 77 hmoveto
          450 310 hlineto
          -225 253 -225 -253 rlineto
          39 -270 rmoveto
          253 vlineto
          186 208 186 -208 rlineto
          -253 vlineto
          endchar
        </CharString>
        <CharString name="hungarumlaut">
          -350 27 591 -9 callgsubr
          endchar
        </CharString>
        <CharString name="hyphen">
          89 callsubr
        </CharString>
        <CharString name="i">
          -461 67 625 70 callgsubr
          endchar
        </CharString>
        <CharString name="i.loclTRK">
          -405 95 66 callgsubr
          -723 vmoveto
          34 callsubr
        </CharString>
        <CharString name="iacute">
          -405 85 -48 callgsubr
          -76 71 callsubr
        </CharString>
        <CharString name="iacute_j.loclNLD">
          -183 85 -48 callgsubr
          180 -132 -88 callgsubr
          -342 103 callsubr
          228 -708 -48 callsubr
        </CharString>
        <CharString name="ibreve">
          -405 139 -29 callsubr
          -44 -606 25 callgsubr
        </CharString>
        <CharString name="icircumflex">
          -405 -8 -45 callgsubr
          -3 71 callsubr
        </CharString>
        <CharString name="idieresis">
          -405 2 3 callgsubr
          -94 71 callsubr
        </CharString>
        <CharString name="igrave">
          -405 117 -10 callgsubr
          86 -720 25 callgsubr
        </CharString>
        <CharString name="ij">
          -239 67 93 callsubr
          222 -98 68 callgsubr
          -222 103 callsubr
          200 -708 -48 callsubr
        </CharString>
        <CharString name="imacron">
          -405 12 639 rmoveto
          254 72 -254 hlineto
          83 -711 25 callgsubr
        </CharString>
        <CharString name="infinity">
          30 194 142 rmoveto
          70 49 45 51 43 hvcurveto
          -51 42 49 -45 71 hhcurveto
          92 55 69 86 86 -56 70 -92 -70 -49 -46 -51 -42 hvcurveto
          51 -43 -49 46 -69 hhcurveto
          -92 -56 -70 -86 -86 55 -69 92 hvcurveto
          72 vmoveto
          -40 -33 36 45 45 34 37 40 44 35 -36 -44 35 hvcurveto
          -46 -36 -34 -37 -45 hhcurveto
          324 hmoveto
          -45 -35 37 46 -36 hvcurveto
          44 36 34 36 45 hhcurveto
          40 34 -37 -45 -45 -33 -36 -40 hvcurveto
          endchar
        </CharString>
        <CharString name="integral">
          -409 33 -141 rmoveto
          86 71 17 95 153 -28 629 0 hvcurveto
          96 callsubr
          -154 27 -626 0 hvcurveto
          -44 -36 -14 -49 vhcurveto
          endchar
        </CharString>
        <CharString name="integralbt">
          -79 187 -250 rmoveto
          86 72 18 94 80 -7 477 -7 440 hvcurveto
          -74 hlineto
          17 -1003 rlineto
          -43 -38 -14 -49 vhcurveto
          endchar
        </CharString>
        <CharString name="integraltp">
          -79 273 -250 rmoveto
          74 hlineto
          -17 1003 rlineto
          96 callsubr
          -80 7 -477 7 -440 hvcurveto
          endchar
        </CharString>
        <CharString name="intersection">
          36 94 hmoveto
          73 411 hlineto
          106 86 87 106 106 87 -87 -106 vhcurveto
          -411 73 410 vlineto
          147 -119 119 -147 -147 -118 -119 -147 vhcurveto
          endchar
        </CharString>
        <CharString name="iogonek">
          -405 182 723 rmoveto
          -87 -95 87 hlineto
          -14 -753 rmoveto
          41 callsubr
          30 42 callgsubr
          -522 -2 hlineto
          -29 -26 -27 -29 -49 79 callsubr
          72 callgsubr
          vhcurveto
          51 vlineto
          endchar
        </CharString>
        <CharString name="itilde">
          -405 -24 -71 callgsubr
          119 -619 25 callgsubr
        </CharString>
        <CharString name="j">
          -461 67 625 50 callgsubr
        </CharString>
        <CharString name="jcircumflex">
          -461 -36 -45 callgsubr
          -25 -905 -48 callsubr
        </CharString>
        <CharString name="k">
          14 callsubr
          455 -88 vlineto
          endchar
        </CharString>
        <CharString name="kcommaaccent">
          14 callsubr
          455 -88 vlineto
          164 -953 -12 callgsubr
        </CharString>
        <CharString name="kgreenlandic">
          14 callsubr
          258 -88 vlineto
          endchar
        </CharString>
        <CharString name="l">
          -461 84 callsubr
          endchar
        </CharString>
        <CharString name="lacute">
          -461 73 751 -88 callgsubr
          -92 -883 rmoveto
          80 callgsubr
          endchar
        </CharString>
        <CharString name="lcaron">
          -391 84 callsubr
          140 -233 rmoveto
          33 callsubr
          endchar
        </CharString>
        <CharString name="lcommaaccent">
          -461 84 callsubr
          -953 vmoveto
          -15 callgsubr
        </CharString>
        <CharString name="ldot">
          -400 84 callsubr
          139 -420 56 callgsubr
        </CharString>
        <CharString name="less">
          -99 529 4 rmoveto
          90 vlineto
          -393 160 393 160 rlineto
          90 vlineto
          -474 -197 rlineto
          -107 vlineto
          endchar
        </CharString>
        <CharString name="lessequal">
          -134 511 124 rmoveto
          90 vlineto
          -392 160 392 160 rlineto
          90 vlineto
          -473 -197 rlineto
          -107 vlineto
          -320 vmoveto
          82 callsubr
        </CharString>
        <CharString name="lira">
          99 callsubr
          124 rlineto
          166 72 -166 76 166 72 -165 92 65 callsubr
          -76 -90 -72 90 -76 -90 -72 90 -124 -76 vlineto
          endchar
        </CharString>
        <CharString name="logicalnot">
          -99 445 197 rmoveto
          84 256 -473 -93 389 hlineto
          endchar
        </CharString>
        <CharString name="longs">
          -405 86 hmoveto
          88 610 11 callgsubr
          endchar
        </CharString>
        <CharString name="lozenge">
          -99 239 -132 rmoveto
          107 hlineto
          178 430 -178 429 rlineto
          -107 hlineto
          -179 -429 rlineto
          232 -359 rmoveto
          -142 359 142 358 142 -358 rlineto
          endchar
        </CharString>
        <CharString name="lslash">
          -461 67 hmoveto
          88 356 hlineto
          66 55 rlineto
          77 vlineto
          -66 -55 rlineto
          290 -88 -363 vlineto
          -67 -56 rlineto
          -77 vlineto
          67 56 rlineto
          endchar
        </CharString>
        <CharString name="m">
          150 67 hmoveto
          62 callgsubr
          97 59 57 68 53 39 -21 -81 vhcurveto
          -363 85 callgsubr
          vlineto
          97 57 57 68 53 41 -21 -81 vhcurveto
          -363 88 379 vlineto
          117 -63 42 -92 -64 -62 -28 -55 -37 vhcurveto
          -6 hlineto
          59 -24 -50 24 -62 hhcurveto
          -66 -55 -26 -57 -37 hvcurveto
          36 callgsubr
          hlineto
          endchar
        </CharString>
        <CharString name="macron">
          -350 14 27 callsubr
          endchar
        </CharString>
        <CharString name="minus">
          -99 56 214 rmoveto
          104 callgsubr
        </CharString>
        <CharString name="minute">
          -496 49 515 78 callgsubr
          endchar
        </CharString>
        <CharString name="multiply">
          -99 140 45 rmoveto
          151 152 152 -152 59 59 -152 151 152 152 -59 59 -152 -152 -151 152 -59 -59 152 -152 -152 -151 rlineto
          endchar
        </CharString>
        <CharString name="n">
          67 hmoveto
          -51 callgsubr
        </CharString>
        <CharString name="nacute">
          10 callgsubr
          -259 -22 callsubr
        </CharString>
        <CharString name="nacute.loclPLK">
          240 21 callsubr
          -199 -22 callsubr
        </CharString>
        <CharString name="napostrophe">
          -79 490 vmoveto
          33 callsubr
          81 -595 -43 callsubr
        </CharString>
        <CharString name="ncaron">
          8 callgsubr
          -63 -22 callsubr
        </CharString>
        <CharString name="ncommaaccent">
          67 hmoveto
          -14 callsubr
          167 -756 -12 callgsubr
        </CharString>
        <CharString name="nine">
          269 -12 rmoveto
          162 87 95 280 254 -95 81 -157 -131 -97 -87 -139 -127 72 -100 151 68 60 27 48 39 hvcurveto
          -159 -2 -30 -100 -122 hhcurveto
          -82 -41 51 89 hvcurveto
          -90 hlineto
          -121 61 -92 147 vhcurveto
          4 329 rmoveto
          -99 -45 67 84 86 45 71 99 99 46 -69 -84 -86 -46 -69 -99 hvcurveto
          endchar
        </CharString>
        <CharString name="notequal">
          -134 119 25 rmoveto
          66 hlineto
          43 81 rlineto
          283 83 -239 hlineto
          69 129 rlineto
          170 84 -125 hlineto
          44 82 rlineto
          -66 hlineto
          -44 -82 rlineto
          -282 -84 237 hlineto
          -69 -129 rlineto
          -168 -83 124 hlineto
          endchar
        </CharString>
        <CharString name="ntilde">
          -42 callgsubr
          -47 -619 -43 callsubr
        </CharString>
        <CharString name="numbersign">
          48 -12 rmoveto
          77 hlineto
          42 191 rlineto
          153 hlineto
          -42 -191 rlineto
          77 hlineto
          42 191 rlineto
          101 76 -85 hlineto
          34 155 rlineto
          96 76 -79 96 callgsubr
          -153 96 callgsubr
          -102 -76 85 hlineto
          -34 -155 rlineto
          -96 -76 80 hlineto
          93 76 rmoveto
          34 155 rlineto
          153 hlineto
          -34 -155 rlineto
          endchar
        </CharString>
        <CharString name="o">
          278 -12 -102 callgsubr
        </CharString>
        <CharString name="oacute">
          10 callgsubr
          -48 -92 callsubr
        </CharString>
        <CharString name="oacute.loclPLK">
          240 21 callsubr
          12 -92 callsubr
        </CharString>
        <CharString name="obreve">
          16 callgsubr
          1 -618 -102 callgsubr
        </CharString>
        <CharString name="ocircumflex">
          130 588 -67 callsubr
        </CharString>
        <CharString name="odieresis">
          32 callsubr
          -50 -92 callsubr
        </CharString>
        <CharString name="oe">
          261 278 -12 rmoveto
          91 66 31 64 40 hvcurveto
          -64 41 68 -31 97 hhcurveto
          127 100 63 128 hvcurveto
          -82 callgsubr
          -97 -68 -31 -65 -41 vhcurveto
          64 -40 -66 32 -91 hhcurveto
          -61 callgsubr
          73 callgsubr
          64 callsubr
          245 251 86 callsubr
        </CharString>
        <CharString name="ogonek">
          -350 183 45 callsubr
        </CharString>
        <CharString name="ograve">
          38 callgsubr
          146 -732 -102 callgsubr
        </CharString>
        <CharString name="ohorn">
          506 686 -79 callgsubr
          endchar
        </CharString>
        <CharString name="ohungarumlaut">
          170 591 -9 callgsubr
          -93 -92 callsubr
        </CharString>
        <CharString name="omacron">
          63 callgsubr
          153 -711 -102 callgsubr
        </CharString>
        <CharString name="one">
          94 hmoveto
          429 73 -164 613 -34 hlineto
          -69 -38 -103 -29 -60 -6 rrcurveto
          -52 178 -488 -177 vlineto
          endchar
        </CharString>
        <CharString name="oneeighth">
          -21 callgsubr
          611 -396 -56 callgsubr
        </CharString>
        <CharString name="onehalf">
          -21 callgsubr
          477 -384 63 callsubr
          -7 1 -10 1 -7 75 callgsubr
          -12 -4 -12 -8 -11 vhcurveto
          -15 -23 -28 -20 -28 -21 94 callgsubr
          endchar
        </CharString>
        <CharString name="onequarter">
          -21 callgsubr
          618 -384 40 callgsubr
        </CharString>
        <CharString name="ordfeminine">
          -313 343 415 rmoveto
          -10 -12 6 16 hvcurveto
          198 vlineto
          63 -45 37 -92 -84 -60 -34 -66 vhcurveto
          -17 69 10 vlineto
          27 17 28 55 56 15 -23 -33 vhcurveto
          -43 vlineto
          -132 -97 -21 -100 -87 74 -14 45 47 41 17 28 25 hvcurveto
          2 hlineto
          -25 8 26 -17 33 hhcurveto
          21 18 4 5 8 hvcurveto
          41 vlineto
          -119 85 rmoveto
          -57 -50 -28 -44 -41 -22 13 38 54 65 11 92 vhcurveto
          endchar
        </CharString>
        <CharString name="ordmasculine">
          -318 183 361 rmoveto
          105 55 59 128 128 -55 59 -105 -105 -56 -59 -128 -128 56 -59 105 hvcurveto
          53 vmoveto
          -63 -25 41 93 hvcurveto
          5 vlineto
          90 25 39 63 62 27 -42 -94 -92 -27 -40 -62 vhcurveto
          endchar
        </CharString>
        <CharString name="orthogonal">
          296 177 hmoveto
          625 66 -551 559 -74 hlineto
          endchar
        </CharString>
        <CharString name="oslash">
          -72 45 -49 -13 callsubr
        </CharString>
        <CharString name="oslashacute">
          -72 268 -48 callgsubr
          -309 -772 -13 callsubr
        </CharString>
        <CharString name="otilde">
          -42 callgsubr
          164 -631 -102 callgsubr
        </CharString>
        <CharString name="p">
          76 callsubr
          193 -79 82 -129 -68 -60 -28 -55 -35 hvcurveto
          -6 hlineto
          -11 71 rlineto
          -66 hlineto
          224 -465 21 callgsubr
        </CharString>
        <CharString name="paragraph">
          -146 233 -168 rmoveto
          84 793 66 -793 84 793 61 61 -266 hlineto
          -136 -108 -58 -160 -145 105 -70 110 hvcurveto
          endchar
        </CharString>
        <CharString name="parenleft">
          -350 239 -157 rmoveto
          59 hlineto
          -82 122 -63 169 156 vvcurveto
          156 63 167 82 122 vhcurveto
          -59 hlineto
          -115 -120 -64 -157 -160 vvcurveto
          -168 64 -161 115 -126 vhcurveto
          endchar
        </CharString>
        <CharString name="parenright">
          -350 60 -157 rmoveto
          59 hlineto
          115 123 64 158 164 vvcurveto
          164 -64 160 -115 123 vhcurveto
          -59 hlineto
          82 -119 63 -164 -152 vvcurveto
          -159 -63 -173 -82 -125 vhcurveto
          endchar
        </CharString>
        <CharString name="partialdiff">
          -189 216 -12 rmoveto
          148 81 148 247 250 -111 102 -113 -51 -34 -13 -16 -29 hvcurveto
          -74 vlineto
          18 25 32 16 46 hhcurveto
          87 64 -110 -142 -9 0 -19 -2 -6 hvcurveto
          -4 hlineto
          26 -13 -39 43 -69 hhcurveto
          -97 -91 -93 -152 -116 58 -100 112 hvcurveto
          7 73 rmoveto
          -55 -32 56 84 97 48 84 64 57 36 -46 -37 11 hvcurveto
          -122 -9 -46 -116 -74 hhcurveto
          endchar
        </CharString>
        <CharString name="percent">
          206 213 337 74 callgsubr
          -55 -337 rmoveto
          79 hlineto
          496 53 callsubr
          -80 hlineto
          -440 -290 rmoveto
          -60 -15 44 73 hvcurveto
          8 vlineto
          74 15 44 60 60 15 -44 -74 vhcurveto
          -8 vlineto
          -73 -15 -44 -60 vhcurveto
          465 -408 74 callgsubr
          59 vmoveto
          -60 -15 45 76 98 callsubr
          74 15 44 60 60 15 -44 -74 vhcurveto
          -4 vlineto
          -76 -15 -45 -60 vhcurveto
          endchar
        </CharString>
        <CharString name="period">
          -405 91 hmoveto
          35 callgsubr
          endchar
        </CharString>
        <CharString name="periodcentered">
          -350 116 303 56 callgsubr
        </CharString>
        <CharString name="perthousand">
          317 160 337 rmoveto
          43 callgsubr
          -42 -337 rmoveto
          64 hlineto
          375 53 callsubr
          -65 hlineto
          -332 -290 rmoveto
          37 callsubr
          354 -410 rmoveto
          43 callgsubr
          327 hmoveto
          43 callgsubr
          -327 59 rmoveto
          37 callsubr
          327 hmoveto
          37 callsubr
          endchar
        </CharString>
        <CharString name="peseta">
          411 625 -11 rmoveto
          24 29 6 8 17 hvcurveto
          51 vlineto
          -39 28 53 -27 85 hhcurveto
          111 83 49 99 callgsubr
          198 -284 -69 115 vvcurveto
          29 14 42 74 72 24 -1 callsubr
          -60 66 -113 -31 -28 -4 -8 -25 vhcurveto
          -176 146 -68 hlineto
          -19 -146 rlineto
          -38 hlineto
          96 -17 -70 64 -121 hhcurveto
          -197 -686 95 263 102 hlineto
          122 80 75 115 10 hvcurveto
          33 -353 hlineto
          -55 26 -56 78 vhcurveto
          -451 357 rmoveto
          257 97 81 callsubr
          595 -286 rmoveto
          -63 -50 28 66 hvcurveto
          10 -84 98 callgsubr
          -6 -14 vvcurveto
          -29 7 -28 16 -24 vhcurveto
          -38 hlineto
          -30 -14 16 31 hvcurveto
          345 85 vlineto
          -9 -19 -5 -22 -24 -189 284 74 -135 vvcurveto
          -51 -45 -27 -53 vhcurveto
          endchar
        </CharString>
        <CharString name="pi">
          7 92 hmoveto
          88 hlineto
          40 89 33 235 9 129 rrcurveto
          201 -306 hlineto
          -80 8 -51 11 -16 vhcurveto
          86 hlineto
          -10 30 -6 44 82 vvcurveto
          297 97 vlineto
          10 73 rlineto
          -455 hlineto
          -96 -56 -11 -19 -28 hvcurveto
          15 -56 rlineto
          9 26 37 4 70 hhcurveto
          -3 -129 -35 -218 -42 -106 rrcurveto
          endchar
        </CharString>
        <CharString name="plus">
          -99 250 hmoveto
          81 callgsubr
          endchar
        </CharString>
        <CharString name="plusminus">
          -134 233 127 rmoveto
          81 callgsubr
          -195 -340 rmoveto
          82 callsubr
        </CharString>
        <CharString name="product">
          140 140 -128 rmoveto
          95 771 352 -771 94 771 101 80 -741 -80 99 hlineto
          endchar
        </CharString>
        <CharString name="q">
          401 -173 rmoveto
          88 699 -66 hlineto
          -11 -71 rlineto
          -6 hlineto
          55 -35 -60 28 -68 hhcurveto
          -129 -79 -82 -193 -191 81 -84 119 74 51 21 51 35 hvcurveto
          6 hlineto
          -136 1 -24 callsubr
          endchar
        </CharString>
        <CharString name="question">
          232 180 rmoveto
          87 41 hlineto
          112 178 -12 199 vvcurveto
          110 -86 68 -120 -162 -77 -92 -112 -12 3 -23 0 vhcurveto
          89 hlineto
          0 -1 11 16 vvcurveto
          46 14 89 127 107 15 -76 -36 vhcurveto
          -126 -174 -13 -134 vvcurveto
          -7 -236 56 callgsubr
        </CharString>
        <CharString name="questiondown">
          -72 258 78 callsubr
          34 -698 rmoveto
          162 76 92 112 12 -3 23 0 hvcurveto
          -89 hlineto
          0 1 -11 -16 vvcurveto
          -46 -14 -89 -126 -107 -15 76 36 vhcurveto
          126 174 13 134 vvcurveto
          56 -87 -41 vlineto
          -112 -178 12 -199 vvcurveto
          -110 86 -68 120 vhcurveto
          endchar
        </CharString>
        <CharString name="quotedbl">
          -328 72 408 70 callsubr
          188 -132 70 callsubr
          endchar
        </CharString>
        <CharString name="quotedblbase">
          -350 42 24 callsubr
          112 24 callsubr
          endchar
        </CharString>
        <CharString name="quotedblleft">
          -350 39 444 61 callgsubr
          152 -99 61 callgsubr
          endchar
        </CharString>
        <CharString name="quotedblright">
          -350 42 444 13 callgsubr
          112 24 callsubr
          endchar
        </CharString>
        <CharString name="quoteleft">
          -461 66 444 61 callgsubr
          endchar
        </CharString>
        <CharString name="quotereversed">
          -461 115 454 rmoveto
          52 hlineto
          -40 124 rlineto
          40 108 -100 -99 hlineto
          endchar
        </CharString>
        <CharString name="quoteright">
          -461 56 444 13 callgsubr
          endchar
        </CharString>
        <CharString name="quotesinglbase">
          -461 61 24 callsubr
          endchar
        </CharString>
        <CharString name="quotesingle">
          -492 72 408 70 callsubr
          endchar
        </CharString>
        <CharString name="r">
          55 callsubr
          endchar
        </CharString>
        <CharString name="racute">
          -350 129 -48 callgsubr
          -148 -723 -6 callgsubr
        </CharString>
        <CharString name="radical">
          -134 296 -148 rmoveto
          90 hlineto
          162 1005 rlineto
          -71 hlineto
          -137 -887 -5 21 -6 25 -10 28 rlinecurve
          -127 347 -162 -68 20 -60 77 30 rlineto
          endchar
        </CharString>
        <CharString name="rcaron">
          -350 125 -45 callsubr
          48 -723 -6 callgsubr
        </CharString>
        <CharString name="rcommaaccent">
          55 callsubr
          -756 vmoveto
          -15 callgsubr
        </CharString>
        <CharString name="registered">
          9 callgsubr
          -144 103 rmoveto
          68 160 111 hlineto
          80 -160 rlineto
          72 hlineto
          -87 171 rlineto
          48 19 24 43 55 vvcurveto
          72 -42 51 -84 vhcurveto
          -190 hlineto
          68 -195 rmoveto
          139 112 vlineto
          43 24 -23 -44 -46 -27 -26 -40 hvcurveto
          endchar
        </CharString>
        <CharString name="revlogicalnot">
          -99 56 197 rmoveto
          84 163 389 93 -473 hlineto
          endchar
        </CharString>
        <CharString name="ring">
          -350 167 45 callgsubr
          endchar
        </CharString>
        <CharString name="s">
          1 callsubr
          endchar
        </CharString>
        <CharString name="sacute">
          28 callsubr
          -51 -54 callgsubr
        </CharString>
        <CharString name="sacute.loclPLK">
          57 callgsubr
          9 -54 callgsubr
        </CharString>
        <CharString name="scaron">
          40 callsubr
          145 -54 callgsubr
        </CharString>
        <CharString name="scedilla">
          -183 461 150 rmoveto
          -82 callsubr
          -72 53 -71 131 -10 48 callsubr
          108 8 76 49 104 vvcurveto
          endchar
        </CharString>
        <CharString name="scircumflex">
          43 callsubr
          39 -54 callgsubr
        </CharString>
        <CharString name="scommaaccent">
          1 callgsubr
          -218 -12 callgsubr
        </CharString>
        <CharString name="second">
          -329 49 515 78 callgsubr
          114 -171 78 callgsubr
          endchar
        </CharString>
        <CharString name="section">
          269 95 callgsubr
          146 84 57 93 66 -37 40 -47 30 hvcurveto
          49 25 49 45 65 207 -362 -39 136 vvcurveto
          28 13 55 112 100 30 -41 -41 vhcurveto
          -9 92 vlineto
          2 1 10 7 vvcurveto
          78 -74 66 -138 -146 -84 -57 -93 -66 35 -41 49 -30 vhcurveto
          -49 -24 -49 -45 -65 -207 362 39 -137 vvcurveto
          -27 -14 -55 -111 -100 -30 41 41 vhcurveto
          9 -92 98 callgsubr
          -10 -7 vvcurveto
          -78 74 -66 138 vhcurveto
          83 318 rmoveto
          -105 42 -116 25 95 vvcurveto
          37 28 28 44 16 vhcurveto
          106 -41 116 -25 -95 vvcurveto
          -37 -30 -28 -43 -17 vhcurveto
          endchar
        </CharString>
        <CharString name="semicolon">
          -405 89 78 callsubr
          -660 vmoveto
          10 callsubr
          endchar
        </CharString>
        <CharString name="seven">
          144 hmoveto
          98 hlineto
          -1 24 0 8 19 vvcurveto
          212 157 227 125 143 vhcurveto
          53 -486 -84 357 vlineto
          -111 -144 -139 -221 -237 vvcurveto
          endchar
        </CharString>
        <CharString name="seveneighths">
          151 91 -12 0 callgsubr
          -520 -370 rmoveto
          69 hlineto
          -1 18 0 8 9 vvcurveto
          102 78 109 61 70 vhcurveto
          42 -260 -56 179 vlineto
          -59 -74 -67 -104 -124 vvcurveto
          528 -340 -56 callgsubr
        </CharString>
        <CharString name="six">
          290 -12 rmoveto
          131 97 87 139 127 -70 100 -148 -70 -62 -27 -48 -40 hvcurveto
          159 2 30 100 122 hhcurveto
          82 41 -51 -89 hvcurveto
          90 hlineto
          121 -61 92 -147 -162 -87 -95 -280 -254 95 -81 157 vhcurveto
          -7 73 rmoveto
          -99 -46 69 84 86 46 69 99 99 45 -67 -84 -86 -45 -71 -99 hvcurveto
          endchar
        </CharString>
        <CharString name="slash">
          -405 1 -49 rmoveto
          71 hlineto
          205 784 rlineto
          -70 hlineto
          endchar
        </CharString>
        <CharString name="space">
          -405 endchar
        </CharString>
        <CharString name="sterling">
          99 callsubr
          225 rlineto
          166 72 -165 139 65 callsubr
          -123 -90 -72 90 -225 -76 vlineto
          endchar
        </CharString>
        <CharString name="summation">
          30 59 -128 rmoveto
          631 88 -512 4 hlineto
          310 351 -287 326 rlineto
          4 470 78 -602 -67 vlineto
          308 -357 -318 -364 rlineto
          endchar
        </CharString>
        <CharString name="t">
          -4 callsubr
          endchar
        </CharString>
        <CharString name="tbar">
          -405 186 -11 rmoveto
          17 callsubr
          155 89 62 -89 128 17 callgsubr
          -128 -64 -62 64 -163 hlineto
          -55 26 -56 78 vhcurveto
          endchar
        </CharString>
        <CharString name="tcaron">
          -308 287 527 rmoveto
          33 callsubr
          -135 -643 -16 callsubr
          endchar
        </CharString>
        <CharString name="thorn">
          76 callsubr
          86 callgsubr
          hlineto
          224 -662 21 callgsubr
        </CharString>
        <CharString name="three">
          281 -12 rmoveto
          140 99 74 122 91 -55 55 -74 22 98 callsubr
          65 29 49 44 81 vvcurveto
          122 -92 66 -136 -133 -94 -74 -114 vhcurveto
          -18 89 9 vlineto
          85 59 39 80 72 64 -35 -85 -81 -67 -39 -75 vhcurveto
          -75 -73 72 hlineto
          82 78 -25 -97 -90 -63 -39 -93 -94 -55 45 85 hvcurveto
          11 -89 -8 vlineto
          -125 87 -81 159 vhcurveto
          endchar
        </CharString>
        <CharString name="threeeighths">
          151 169 328 -49 callgsubr
          -61 -340 0 callgsubr
          8 -710 -56 callgsubr
        </CharString>
        <CharString name="threequarters">
          151 175 328 -49 callgsubr
          -67 -340 0 callgsubr
          15 -698 40 callgsubr
        </CharString>
        <CharString name="tilde">
          -350 3 -71 callgsubr
          endchar
        </CharString>
        <CharString name="trademark">
          317 222 283 rmoveto
          67 341 141 63 -350 -63 142 hlineto
          263 -342 rmoveto
          61 329 5 hlineto
          111 -329 rlineto
          64 hlineto
          112 329 rlineto
          5 -329 67 405 -104 hlineto
          -105 -316 95 callsubr
          -105 316 rlineto
          -106 hlineto
          endchar
        </CharString>
        <CharString name="two">
          39 hmoveto
          471 84 -368 hlineto
          5 11 7 12 11 12 rrcurveto
          96 111 245 95 173 vvcurveto
          141 -96 59 -122 -129 -112 -61 -147 -24 3 -16 0 vhcurveto
          88 41 hlineto
          71 38 60 107 108 24 -66 -50 -34 -13 -30 -21 -28 vhcurveto
          -92 -123 -250 -82 -180 vvcurveto
          endchar
        </CharString>
        <CharString name="u">
          228 -12 -98 callgsubr
        </CharString>
        <CharString name="uacute">
          239 -48 callgsubr
          -97 -75 callsubr
        </CharString>
        <CharString name="ubreve">
          276 -29 callsubr
          -48 -618 -98 callgsubr
        </CharString>
        <CharString name="ucircumflex">
          129 -45 callgsubr
          -7 -75 callsubr
        </CharString>
        <CharString name="udieresis">
          140 628 -54 callsubr
        </CharString>
        <CharString name="ugrave">
          239 -10 callgsubr
          97 -732 -98 callgsubr
        </CharString>
        <CharString name="uhorn">
          -56 callsubr
          endchar
        </CharString>
        <CharString name="uhungarumlaut">
          169 591 -9 callgsubr
          -142 -75 callsubr
        </CharString>
        <CharString name="umacron">
          124 27 callsubr
          104 -711 -98 callgsubr
        </CharString>
        <CharString name="underscore">
          -124 vmoveto
          556 53 -556 hlineto
          endchar
        </CharString>
        <CharString name="underscoredbl">
          -131 -124 vmoveto
          551 53 -551 hlineto
          -146 vmoveto
          551 53 -551 hlineto
          endchar
        </CharString>
        <CharString name="uni00A0">
          -405 endchar
        </CharString>
        <CharString name="uni00AD">
          89 callsubr
        </CharString>
        <CharString name="uni00B2">
          -350 41 335 57 callsubr
          39 68 87 callgsubr
          -11 2 -13 0 75 callgsubr
          -15 -7 -14 -10 -13 vhcurveto
          -16 -20 -25 -18 -25 -19 94 callgsubr
          endchar
        </CharString>
        <CharString name="uni00B3">
          -350 169 328 67 callsubr
          -36 16 hvcurveto
          2 vlineto
          29 -53 callsubr
          endchar
        </CharString>
        <CharString name="uni00B5">
          28 callgsubr
        </CharString>
        <CharString name="uni00B9">
          -350 51 328 -1 callgsubr
          endchar
        </CharString>
        <CharString name="uni0162">
          -72 353 hmoveto
          54 callgsubr
          -603 15 vlineto
          -14 -77 -21 callsubr
          6 36 rlineto
          endchar
        </CharString>
        <CharString name="uni0163">
          -405 173 -36 rmoveto
          4 25 rlineto
          9 hlineto
          -22 callgsubr
          -34 10 -35 27 -21 vhcurveto
          -16 -87 -21 callsubr
          endchar
        </CharString>
        <CharString name="uni018F">
          75 372 -12 rmoveto
          228 108 109 241 247 -113 113 -224 -191 -133 -82 -162 hvcurveto
          91 hlineto
          119 103 44 120 159 80 -78 -168 10 vhcurveto
          -563 -62 hlineto
          -230 117 -91 208 vhcurveto
          8 81 rmoveto
          -141 -94 59 155 hvcurveto
          462 hlineto
          -154 -16 -69 -60 -142 hhcurveto
          endchar
        </CharString>
        <CharString name="uni019D">
          39 58 79 callgsubr
          507 vlineto
          72 vlineto
          4 1 13 -18 14 -17 13 -18 rlinecurve
          350 -466 -36 callsubr
          -751 hlineto
          48 callgsubr
          -43 -4 callgsubr
        </CharString>
        <CharString name="uni01C4">
          650 986 -44 callgsubr
          -801 -868 rmoveto
          6 callgsubr
        </CharString>
        <CharString name="uni01C5">
          539 930 -45 callsubr
          -745 -723 rmoveto
          -41 callgsubr
          413 -83 -20 callsubr
        </CharString>
        <CharString name="uni01C6">
          373 -33 callgsubr
          521 600 -80 callgsubr
          -78 -723 20 callgsubr
        </CharString>
        <CharString name="uni01C7">
          373 46 callsubr
          702 -14 callgsubr
        </CharString>
        <CharString name="uni01C8">
          95 623 93 callsubr
          -544 -723 rmoveto
          38 callsubr
          522 -868 -48 callsubr
        </CharString>
        <CharString name="uni01C9">
          -239 84 callsubr
          222 -98 50 callgsubr
        </CharString>
        <CharString name="uni01CA">
          539 49 callgsubr
          868 -14 callgsubr
        </CharString>
        <CharString name="uni01CB">
          261 789 93 callsubr
          -710 -723 rmoveto
          -61 callsubr
          688 -868 -48 callsubr
        </CharString>
        <CharString name="uni01CC">
          95 623 93 callsubr
          -556 -723 rmoveto
          -14 callsubr
          534 -708 -48 callsubr
        </CharString>
        <CharString name="uni01CD">
          44 callgsubr
          -179 -72 callsubr
        </CharString>
        <CharString name="uni01CE">
          8 callgsubr
          80 -99 callgsubr
        </CharString>
        <CharString name="uni01CF">
          -405 97 -44 callgsubr
          101 59 callsubr
        </CharString>
        <CharString name="uni01D0">
          -405 97 -45 callsubr
          104 71 callsubr
        </CharString>
        <CharString name="uni01D1">
          95 347 -44 callgsubr
          148 -97 callgsubr
        </CharString>
        <CharString name="uni01D2">
          8 callgsubr
          148 -92 callsubr
        </CharString>
        <CharString name="uni01D3">
          5 callsubr
          147 -74 callgsubr
        </CharString>
        <CharString name="uni01D4">
          235 -45 callsubr
          99 -75 callsubr
        </CharString>
        <CharString name="uni01D5">
          39 208 939 0 callsubr
          16 -238 -53 callgsubr
        </CharString>
        <CharString name="uni01D6">
          124 794 0 callsubr
          16 -238 -54 callsubr
        </CharString>
        <CharString name="uni01D7">
          94 callsubr
          903 -88 callgsubr
          -185 -262 -53 callgsubr
        </CharString>
        <CharString name="uni01D8">
          239 758 -88 callgsubr
          -185 -262 -54 callsubr
        </CharString>
        <CharString name="uni01D9">
          39 319 900 -80 callgsubr
          11 -262 -53 callgsubr
        </CharString>
        <CharString name="uni01DA">
          235 755 -80 callgsubr
          11 -262 -54 callsubr
        </CharString>
        <CharString name="uni01DB">
          94 callsubr
          903 -60 callsubr
          9 -259 -53 callgsubr
        </CharString>
        <CharString name="uni01DC">
          239 758 -60 callsubr
          9 -259 -54 callsubr
        </CharString>
        <CharString name="uni01EA">
          95 529 8 rmoveto
          1 vlineto
          129 43 74 111 180 vvcurveto
          -87 callgsubr
          20 20 1 2 19 vhcurveto
          -20 -21 -15 -26 -36 69 callsubr
          -384 331 rmoveto
          -90 callgsubr
          -15 callsubr
          vhcurveto
          endchar
        </CharString>
        <CharString name="uni01EB">
          392 8 rmoveto
          85 35 44 83 137 vvcurveto
          -73 callsubr
          11 10 0 1 10 vhcurveto
          -19 -21 -14 -25 -35 69 callsubr
          -266 251 rmoveto
          -77 callsubr
          3 callsubr
          vhcurveto
          endchar
        </CharString>
        <CharString name="uni01F1">
          650 79 hmoveto
          6 callgsubr
        </CharString>
        <CharString name="uni01F2">
          539 79 hmoveto
          -41 callgsubr
          413 -83 -20 callsubr
        </CharString>
        <CharString name="uni01F3">
          373 -33 callgsubr
          337 12 20 callgsubr
        </CharString>
        <CharString name="uni01F4">
          95 534 865 41 callgsubr
          -56 -462 -84 callgsubr
        </CharString>
        <CharString name="uni01F5">
          10 callgsubr
          -165 -83 callgsubr
        </CharString>
        <CharString name="uni0200">
          -16 241 -28 callsubr
          -289 -865 -95 callsubr
        </CharString>
        <CharString name="uni0201">
          185 -38 callsubr
          -30 -732 -107 callsubr
        </CharString>
        <CharString name="uni0202">
          -16 188 -27 callgsubr
          -181 -40 callgsubr
          endchar
        </CharString>
        <CharString name="uni0203">
          132 -37 callgsubr
          78 -78 callgsubr
          endchar
        </CharString>
        <CharString name="uni0204">
          -16 241 -28 callsubr
          -217 -865 -47 callgsubr
        </CharString>
        <CharString name="uni0205">
          185 -38 callsubr
          50 -732 -103 callgsubr
        </CharString>
        <CharString name="uni0206">
          -16 188 -27 callgsubr
          -109 -751 -47 callgsubr
        </CharString>
        <CharString name="uni0207">
          132 -37 callgsubr
          158 -618 -103 callgsubr
        </CharString>
        <CharString name="uni0208">
          -405 46 -28 callsubr
          -9 -865 25 callsubr
        </CharString>
        <CharString name="uni0209">
          -405 46 -38 callsubr
          -6 -720 25 callgsubr
        </CharString>
        <CharString name="uni020A">
          -405 -7 -27 callgsubr
          99 -751 25 callsubr
        </CharString>
        <CharString name="uni020B">
          -405 -7 -37 callgsubr
          102 -606 25 callgsubr
        </CharString>
        <CharString name="uni020C">
          95 296 -28 callsubr
          38 -877 -105 callgsubr
        </CharString>
        <CharString name="uni020D">
          185 -38 callsubr
          38 -732 -102 callgsubr
        </CharString>
        <CharString name="uni020E">
          95 243 -27 callgsubr
          146 -763 -105 callgsubr
        </CharString>
        <CharString name="uni020F">
          132 -37 callgsubr
          146 -618 -102 callgsubr
        </CharString>
        <CharString name="uni0210">
          39 268 -28 callsubr
          -244 -865 -32 callsubr
        </CharString>
        <CharString name="uni0211">
          -350 74 -38 callsubr
          -62 -720 -6 callgsubr
        </CharString>
        <CharString name="uni0212">
          39 215 -27 callgsubr
          -136 -751 -32 callsubr
        </CharString>
        <CharString name="uni0213">
          -350 21 -37 callgsubr
          46 -606 -6 callgsubr
        </CharString>
        <CharString name="uni0214">
          39 268 -28 callsubr
          37 -877 -95 callgsubr
        </CharString>
        <CharString name="uni0215">
          184 -38 callsubr
          -11 -732 -98 callgsubr
        </CharString>
        <CharString name="uni0216">
          39 215 -27 callgsubr
          145 -763 -95 callgsubr
        </CharString>
        <CharString name="uni0217">
          131 -37 callgsubr
          97 -618 -98 callgsubr
        </CharString>
        <CharString name="uni021A">
          61 callsubr
          4 -833 -12 callgsubr
        </CharString>
        <CharString name="uni021B">
          -4 callsubr
          -80 -219 -12 callgsubr
        </CharString>
        <CharString name="uni0232">
          58 callgsubr
          106 -844 -46 callgsubr
        </CharString>
        <CharString name="uni0232.loclGUA">
          58 callgsubr
          146 -856 -80 callsubr
        </CharString>
        <CharString name="uni0233">
          -183 97 27 callsubr
          20 -881 -81 callgsubr
        </CharString>
        <CharString name="uni0233.loclGUA">
          63 callgsubr
          141 -881 -79 callsubr
        </CharString>
        <CharString name="uni0237">
          -461 45 -182 -48 callsubr
        </CharString>
        <CharString name="uni0259">
          268 -12 rmoveto
          166 83 87 188 186 -82 89 -162 -137 -97 -63 -128 hvcurveto
          86 hlineto
          85 64 33 79 99 53 -53 -125 6 vhcurveto
          -387 -44 hlineto
          -184 79 -71 150 vhcurveto
          3 73 rmoveto
          -86 -54 40 99 callgsubr
          293 hlineto
          -109 -10 -53 -44 -90 hhcurveto
          endchar
        </CharString>
        <CharString name="uni0272">
          45 79 callgsubr
          372 vlineto
          -62 callgsubr
          -591 hlineto
          -24 callgsubr
        </CharString>
        <CharString name="uni02BC">
          -482 58 490 rmoveto
          33 callsubr
          endchar
        </CharString>
        <CharString name="uni02C9">
          -350 14 27 callsubr
          endchar
        </CharString>
        <CharString name="uni030F">
          -683 -222 -38 callsubr
          endchar
        </CharString>
        <CharString name="uni0311">
          -683 -312 -37 callgsubr
          endchar
        </CharString>
        <CharString name="uni031B">
          -683 -212 686 18 callgsubr
          -56 vlineto
          134 16 68 71 112 vvcurveto
          54 vlineto
          endchar
        </CharString>
        <CharString name="uni0326">
          -683 -155 -230 -12 callgsubr
        </CharString>
        <CharString name="uni0328">
          -683 -150 45 callsubr
        </CharString>
        <CharString name="uni0394">
          -16 7 hmoveto
          653 100 callgsubr
          -135 -603 rmoveto
          11 29 10 30 11 29 115 312 rcurveline
          14 39 15 38 14 39 rrcurveto
          5 hlineto
          14 -39 15 -38 14 -39 116 -310 rcurveline
          33 -90 rlineto
          endchar
        </CharString>
        <CharString name="uni03A9">
          -9 callsubr
        </CharString>
        <CharString name="uni03BC">
          28 callgsubr
        </CharString>
        <CharString name="uni1E0C">
          39 79 hmoveto
          -41 callgsubr
          -16 -256 -28 callgsubr
        </CharString>
        <CharString name="uni1E0D">
          -33 callgsubr
          22 73 -24 callsubr
          -31 -234 -28 callgsubr
        </CharString>
        <CharString name="uni1E24">
          73 callsubr
          238 -859 -28 callgsubr
        </CharString>
        <CharString name="uni1E25">
          67 hmoveto
          12 callsubr
          167 -896 -28 callgsubr
        </CharString>
        <CharString name="uni1E44">
          39 317 75 callsubr
          -238 -17 callgsubr
        </CharString>
        <CharString name="uni1E45">
          234 66 callgsubr
          -167 -22 callsubr
        </CharString>
        <CharString name="uni1E5A">
          19 callsubr
          -539 -28 callgsubr
        </CharString>
        <CharString name="uni1E5B">
          55 callsubr
          -699 vmoveto
          87 95 -87 hlineto
          endchar
        </CharString>
        <CharString name="uni1E62">
          -6 callsubr
          77 callgsubr
        </CharString>
        <CharString name="uni1E63">
          1 callgsubr
          77 callgsubr
        </CharString>
        <CharString name="uni1E6C">
          61 callsubr
          4 -776 -28 callgsubr
        </CharString>
        <CharString name="uni1E6D">
          -4 callsubr
          -80 -162 -28 callgsubr
        </CharString>
        <CharString name="uni1E92">
          -72 23 hmoveto
          -29 callgsubr
          239 -222 -28 callgsubr
        </CharString>
        <CharString name="uni1E93">
          -183 24 hmoveto
          -43 callgsubr
          182 -220 -28 callgsubr
        </CharString>
        <CharString name="uni1E9E">
          85 79 hmoveto
          95 414 hlineto
          138 84 65 143 124 53 -49 -74 -68 -45 -45 -63 vhcurveto
          -186 -83 189 hlineto
          88 51 -44 -62 -55 -41 -54 -78 hvcurveto
          -209 -83 222 hlineto
          127 76 82 105 84 -48 56 -77 20 98 callsubr
          50 20 41 60 72 vvcurveto
          118 -111 77 -172 -188 -125 -93 -184 vhcurveto
          endchar
        </CharString>
        <CharString name="uni1EA0">
          -16 7 hmoveto
          -103 callsubr
          -169 -439 -28 callgsubr
        </CharString>
        <CharString name="uni1EA1">
          210 -12 -50 callsubr
        </CharString>
        <CharString name="uni1EA2">
          7 callgsubr
          -299 -797 -95 callsubr
        </CharString>
        <CharString name="uni1EA3">
          250 -49 callsubr
          -40 -664 -107 callsubr
        </CharString>
        <CharString name="uni1EA4">
          -16 428 831 -88 callgsubr
          -328 -230 -59 callsubr
        </CharString>
        <CharString name="uni1EA5">
          372 686 -88 callgsubr
          -328 -230 -86 callgsubr
        </CharString>
        <CharString name="uni1EA6">
          -16 468 831 -60 callsubr
          -174 -227 -59 callsubr
        </CharString>
        <CharString name="uni1EA7">
          412 686 -60 callsubr
          -174 -227 -86 callgsubr
        </CharString>
        <CharString name="uni1EA8">
          -16 438 831 -96 callgsubr
          -252 -159 -59 callsubr
        </CharString>
        <CharString name="uni1EA9">
          382 686 -96 callgsubr
          -252 -159 -86 callgsubr
        </CharString>
        <CharString name="uni1EAA">
          -16 172 924 -101 callgsubr
          14 -191 -59 callsubr
        </CharString>
        <CharString name="uni1EAB">
          116 779 -101 callgsubr
          14 -191 -86 callgsubr
        </CharString>
        <CharString name="uni1EAC">
          19 callgsubr
          -285 -868 24 callgsubr
        </CharString>
        <CharString name="uni1EAD">
          7 callsubr
          -26 -735 -50 callsubr
        </CharString>
        <CharString name="uni1EAE">
          -16 296 868 71 callgsubr
          -249 -69 callsubr
        </CharString>
        <CharString name="uni1EAF">
          240 723 71 callgsubr
          -249 -93 callsubr
        </CharString>
        <CharString name="uni1EB0">
          -16 293 868 -60 callsubr
          148 -246 -69 callsubr
        </CharString>
        <CharString name="uni1EB1">
          242 723 -60 callsubr
          143 -246 -93 callsubr
        </CharString>
        <CharString name="uni1EB2">
          -16 306 868 52 callgsubr
          -178 -69 callsubr
        </CharString>
        <CharString name="uni1EB3">
          250 723 52 callgsubr
          -178 -93 callsubr
        </CharString>
        <CharString name="uni1EB4">
          -16 172 924 -101 callgsubr
          161 -173 -69 callsubr
        </CharString>
        <CharString name="uni1EB5">
          116 779 -101 callgsubr
          161 -173 -93 callsubr
        </CharString>
        <CharString name="uni1EB6">
          -16 333 751 -68 callgsubr
          -169 -439 -66 callgsubr
          endchar
        </CharString>
        <CharString name="uni1EB7">
          277 606 -91 callgsubr
          1 -234 -66 callgsubr
          endchar
        </CharString>
        <CharString name="uni1EB8">
          -16 79 hmoveto
          59 callgsubr
        </CharString>
        <CharString name="uni1EB9">
          290 -12 9 callsubr
        </CharString>
        <CharString name="uni1EBA">
          7 callgsubr
          -227 -797 -47 callgsubr
        </CharString>
        <CharString name="uni1EBB">
          250 -49 callsubr
          40 -664 -103 callgsubr
        </CharString>
        <CharString name="uni1EBC">
          -19 callsubr
          -91 -764 -47 callgsubr
        </CharString>
        <CharString name="uni1EBD">
          -42 callgsubr
          176 -631 -103 callgsubr
        </CharString>
        <CharString name="uni1EBE">
          -16 428 831 -88 callgsubr
          -328 -230 -34 callsubr
        </CharString>
        <CharString name="uni1EBF">
          372 686 -88 callgsubr
          -328 -230 -73 callgsubr
        </CharString>
        <CharString name="uni1EC0">
          -16 468 831 -60 callsubr
          -174 -227 -34 callsubr
        </CharString>
        <CharString name="uni1EC1">
          412 686 -60 callsubr
          -174 -227 -73 callgsubr
        </CharString>
        <CharString name="uni1EC2">
          -16 438 831 -96 callgsubr
          -252 -159 -34 callsubr
        </CharString>
        <CharString name="uni1EC3">
          382 686 -96 callgsubr
          -252 -159 -73 callgsubr
        </CharString>
        <CharString name="uni1EC4">
          -16 172 924 -101 callgsubr
          14 -191 -34 callsubr
        </CharString>
        <CharString name="uni1EC5">
          116 779 -101 callgsubr
          14 -191 -73 callgsubr
        </CharString>
        <CharString name="uni1EC6">
          -16 186 733 -31 callgsubr
          211 -859 -66 callgsubr
          endchar
        </CharString>
        <CharString name="uni1EC7">
          7 callsubr
          54 -735 9 callsubr
        </CharString>
        <CharString name="uni1EC8">
          -405 111 -38 callgsubr
          -19 -797 25 callsubr
        </CharString>
        <CharString name="uni1EC9">
          -405 111 -49 callsubr
          -16 -652 25 callgsubr
        </CharString>
        <CharString name="uni1ECA">
          -405 92 hmoveto
          72 callsubr
          3 -859 -28 callgsubr
        </CharString>
        <CharString name="uni1ECB">
          -461 67 625 70 callgsubr
          -699 vmoveto
          87 95 -87 hlineto
          endchar
        </CharString>
        <CharString name="uni1ECC">
          95 389 -12 2 callgsubr
        </CharString>
        <CharString name="uni1ECD">
          278 -12 15 callsubr
        </CharString>
        <CharString name="uni1ECE">
          95 361 -38 callgsubr
          28 -809 -105 callgsubr
        </CharString>
        <CharString name="uni1ECF">
          250 -49 callsubr
          28 -664 -102 callgsubr
        </CharString>
        <CharString name="uni1ED0">
          95 483 831 -88 callgsubr
          -328 -230 -76 callgsubr
        </CharString>
        <CharString name="uni1ED1">
          372 686 -88 callgsubr
          -328 -230 -67 callsubr
        </CharString>
        <CharString name="uni1ED2">
          95 523 831 -60 callsubr
          -174 -227 -76 callgsubr
        </CharString>
        <CharString name="uni1ED3">
          412 686 -60 callsubr
          -174 -227 -67 callsubr
        </CharString>
        <CharString name="uni1ED4">
          95 493 831 -96 callgsubr
          -252 -159 -76 callgsubr
        </CharString>
        <CharString name="uni1ED5">
          382 686 -96 callgsubr
          -252 -159 -67 callsubr
        </CharString>
        <CharString name="uni1ED6">
          95 227 924 -101 callgsubr
          14 -191 -76 callgsubr
        </CharString>
        <CharString name="uni1ED7">
          116 779 -101 callgsubr
          14 -191 -67 callsubr
        </CharString>
        <CharString name="uni1ED8">
          95 241 -33 callsubr
          42 -880 2 callgsubr
        </CharString>
        <CharString name="uni1ED9">
          7 callsubr
          42 -735 15 callsubr
        </CharString>
        <CharString name="uni1EDA">
          95 534 865 41 callgsubr
          352 38 -87 callsubr
          endchar
        </CharString>
        <CharString name="uni1EDB">
          423 720 41 callgsubr
          191 95 -79 callgsubr
          endchar
        </CharString>
        <CharString name="uni1EDC">
          95 426 736 46 callgsubr
          427 38 -87 callsubr
          endchar
        </CharString>
        <CharString name="uni1EDD">
          315 591 46 callgsubr
          266 95 -79 callgsubr
          endchar
        </CharString>
        <CharString name="uni1EDE">
          95 403 815 -11 callgsubr
          375 -41 -87 callsubr
          endchar
        </CharString>
        <CharString name="uni1EDF">
          292 670 -11 callgsubr
          214 16 -79 callgsubr
          endchar
        </CharString>
        <CharString name="uni1EE0">
          95 318 795 -26 callsubr
          460 -21 -87 callsubr
          endchar
        </CharString>
        <CharString name="uni1EE1">
          207 650 -26 callsubr
          299 36 -79 callgsubr
          endchar
        </CharString>
        <CharString name="uni1EE2">
          95 778 774 -87 callsubr
          -289 -516 -28 callgsubr
        </CharString>
        <CharString name="uni1EE3">
          506 686 -79 callgsubr
          -196 -440 -28 callgsubr
        </CharString>
        <CharString name="uni1EE4">
          39 360 -12 rmoveto
          -99 callsubr
          -43 77 callgsubr
        </CharString>
        <CharString name="uni1EE5">
          228 -12 -100 callsubr
          6 77 callgsubr
        </CharString>
        <CharString name="uni1EE6">
          39 333 -38 callgsubr
          27 -809 -95 callgsubr
        </CharString>
        <CharString name="uni1EE7">
          249 -49 callsubr
          -21 -664 -98 callgsubr
        </CharString>
        <CharString name="uni1EE8">
          -57 callgsubr
          -256 -3 41 callgsubr
          endchar
        </CharString>
        <CharString name="uni1EE9">
          -56 callsubr
          -184 -3 41 callgsubr
          endchar
        </CharString>
        <CharString name="uni1EEA">
          -57 callgsubr
          -364 -132 46 callgsubr
          endchar
        </CharString>
        <CharString name="uni1EEB">
          -56 callsubr
          -292 -132 46 callgsubr
          endchar
        </CharString>
        <CharString name="uni1EEC">
          39 375 815 -11 callgsubr
          267 53 -65 callsubr
          endchar
        </CharString>
        <CharString name="uni1EED">
          291 670 -11 callgsubr
          195 53 -65 callgsubr
          endchar
        </CharString>
        <CharString name="uni1EEE">
          -57 callgsubr
          -472 -73 -26 callsubr
          endchar
        </CharString>
        <CharString name="uni1EEF">
          -56 callsubr
          -400 -73 -26 callsubr
          endchar
        </CharString>
        <CharString name="uni1EF0">
          -57 callgsubr
          -445 -1041 -28 callgsubr
        </CharString>
        <CharString name="uni1EF1">
          -56 callsubr
          -372 -896 -28 callgsubr
        </CharString>
        <CharString name="uni1EF4">
          -16 287 hmoveto
          -55 callgsubr
          3 -457 -28 callgsubr
        </CharString>
        <CharString name="uni1EF5">
          -183 117 -182 -86 callsubr
          199 9 -28 callgsubr
        </CharString>
        <CharString name="uni1EF6">
          7 callgsubr
          -19 -797 -46 callgsubr
        </CharString>
        <CharString name="uni1EF7">
          -183 222 -49 callsubr
          -105 -834 -81 callgsubr
        </CharString>
        <CharString name="uni1EF8">
          -19 callsubr
          117 -764 -46 callgsubr
        </CharString>
        <CharString name="uni1EF8.loclGUA">
          -19 callsubr
          157 -776 -80 callsubr
        </CharString>
        <CharString name="uni1EF9">
          -183 86 -71 callgsubr
          31 -801 -81 callgsubr
        </CharString>
        <CharString name="uni1EF9.loclGUA">
          -42 callgsubr
          152 -801 -79 callsubr
        </CharString>
        <CharString name="uni2015">
          317 32 233 rmoveto
          937 75 -937 hlineto
          endchar
        </CharString>
        <CharString name="uni203E">
          -350 -15 790 rmoveto
          364 68 -364 hlineto
          endchar
        </CharString>
        <CharString name="uni207F">
          -318 39 370 rmoveto
          69 211 hlineto
          63 40 39 46 38 26 -16 -58 vhcurveto
          -239 69 244 vlineto
          88 -43 33 -68 -45 -39 -16 -40 -26 vhcurveto
          -5 hlineto
          -7 48 rlineto
          -55 hlineto
          endchar
        </CharString>
        <CharString name="uni20B2">
          -93 344 254 rmoveto
          91 -10 hlineto
          -43 -42 -52 -88 vhcurveto
          388 2 vlineto
          76 53 -35 -80 hvcurveto
          94 hlineto
          132 -96 64 -129 vhcurveto
          105 -51 -108 vlineto
          -134 -17 -70 -90 -164 vvcurveto
          -169 75 -91 129 -14 vhcurveto
          -119 51 117 vlineto
          55 2 54 15 35 41 7 -46 rcurveline
          74 257 -186 hlineto
          -198 1 rmoveto
          8 vlineto
          114 37 55 71 17 vhcurveto
          -378 vlineto
          -72 15 -36 55 114 vvcurveto
          endchar
        </CharString>
        <CharString name="uni2105">
          202 204 311 rmoveto
          100 39 72 83 hvcurveto
          -79 hlineto
          -59 -17 -32 -43 -50 -23 28 97 vhcurveto
          8 vlineto
          97 23 28 50 43 13 -29 -62 vhcurveto
          83 hlineto
          101 -41 55 -98 -107 -50 -61 -133 -134 48 -59 109 vhcurveto
          -55 -323 -7 callsubr
          496 710 rlineto
          -74 hlineto
          31 -710 rmoveto
          106 55 61 133 133 -55 61 -106 -106 -55 -61 -133 -133 55 -61 106 hvcurveto
          65 vmoveto
          -52 -26 27 98 hvcurveto
          8 vlineto
          98 26 28 52 52 27 -28 -98 vhcurveto
          -8 vlineto
          -98 -27 -27 -52 vhcurveto
          endchar
        </CharString>
        <CharString name="uni2113">
          -360 130 198 rmoveto
          38 vlineto
          101 112 67 116 118 vvcurveto
          88 -34 65 -70 -66 -67 -56 -171 vhcurveto
          -253 vlineto
          -12 -14 -10 -10 -11 -11 rrcurveto
          -70 vlineto
          34 33 rlineto
          -15 vlineto
          -99 2 37 -81 103 hhcurveto
          32 25 9 17 25 hvcurveto
          73 vlineto
          -18 -19 -23 -12 -27 hhcurveto
          -48 -39 39 102 hvcurveto
          310 vmoveto
          123 33 40 32 33 14 -33 -55 -89 -49 -92 -63 -84 vhcurveto
          endchar
        </CharString>
        <CharString name="uni2116">
          390 861 304 rmoveto
          103 57 61 136 136 -57 61 -103 -105 -55 -61 -136 -136 55 -61 105 hvcurveto
          -782 -304 rmoveto
          89 459 hlineto
          59 vlineto
          4 1 30 -42 340 -477 rlineto
          81 686 -89 -443 hlineto
          -66 vlineto
          -4 -1 -30 42 -336 468 rlineto
          -85 hlineto
          782 -316 rmoveto
          -50 -25 31 95 hvcurveto
          10 vlineto
          95 25 31 50 51 24 -31 -95 vhcurveto
          -10 vlineto
          -95 -24 -31 -51 vhcurveto
          -146 -172 rmoveto
          293 66 -293 hlineto
          endchar
        </CharString>
        <CharString name="uni2126">
          -9 callsubr
        </CharString>
        <CharString name="uni2153">
          -21 callgsubr
          613 -396 -49 callgsubr
          endchar
        </CharString>
        <CharString name="uni2154">
          151 39 334 63 callsubr
          -11 2 -13 0 75 callgsubr
          -18 -9 -17 -15 -15 vhcurveto
          -15 -17 -22 -16 -22 -16 94 callgsubr
          69 -370 0 callgsubr
          10 -710 -49 callgsubr
          endchar
        </CharString>
        <CharString name="uni2206">
          -71 13 hmoveto
          586 hlineto
          -280 698 rlineto
          -223 -644 rmoveto
          198 448 184 -448 rlineto
          endchar
        </CharString>
        <CharString name="uni2215">
          84 callgsubr
        </CharString>
        <CharString name="uni2219">
          -333 168 193 rmoveto
          34 28 28 34 34 -28 28 -34 -34 -28 -28 -34 -34 28 -28 34 hvcurveto
          endchar
        </CharString>
        <CharString name="uniA78B">
          -512 46 208 rmoveto
          48 hlineto
          52 379 rlineto
          99 -100 vlineto
          endchar
        </CharString>
        <CharString name="uniA78C">
          -527 46 288 rmoveto
          48 hlineto
          42 323 rlineto
          112 -90 vlineto
          endchar
        </CharString>
        <CharString name="uogonek">
          428 88 callsubr
          20 21 35 43 29 42 12 hvcurveto
          42 callgsubr
          -311 vlineto
          -85 callsubr
          6 callsubr
          vhcurveto
          7 hlineto
          9 -64 rlineto
          -60 -17 -35 -39 -51 vvcurveto
          -61 57 -21 45 vhcurveto
          endchar
        </CharString>
        <CharString name="uring">
          277 45 callgsubr
          -49 -623 -98 callgsubr
        </CharString>
        <CharString name="utilde">
          113 -71 callgsubr
          115 -631 -98 callgsubr
        </CharString>
        <CharString name="v">
          -183 206 hmoveto
          88 hlineto
          193 526 rlineto
          -88 hlineto
          -92 -263 rlineto
          -23 -65 -28 -100 8 callsubr
          -31 106 -21 59 vhcurveto
          -93 263 rlineto
          -93 hlineto
          endchar
        </CharString>
        <CharString name="w">
          39 163 hmoveto
          -69 callgsubr
        </CharString>
        <CharString name="wacute">
          94 callsubr
          -48 callgsubr
          -246 -34 callgsubr
        </CharString>
        <CharString name="wcircumflex">
          39 213 -45 callgsubr
          -156 -34 callgsubr
        </CharString>
        <CharString name="wdieresis">
          39 224 3 callgsubr
          -248 -34 callgsubr
        </CharString>
        <CharString name="wgrave">
          94 callsubr
          -10 callgsubr
          -52 -720 rmoveto
          -69 callgsubr
        </CharString>
        <CharString name="x">
          -183 7 hmoveto
          102 hlineto
          137 202 rlineto
          6 hlineto
          135 -202 rlineto
          106 hlineto
          -195 271 186 255 rlineto
          -102 hlineto
          -128 -187 rlineto
          -6 hlineto
          -125 187 rlineto
          -107 hlineto
          186 -257 rlineto
          endchar
        </CharString>
        <CharString name="y">
          -183 117 -182 -81 callgsubr
        </CharString>
        <CharString name="y.loclGUA">
          266 -182 -79 callsubr
        </CharString>
        <CharString name="yacute">
          28 callsubr
          -181 -905 -81 callgsubr
        </CharString>
        <CharString name="yacute.loclGUA">
          10 callgsubr
          -60 -905 -79 callsubr
        </CharString>
        <CharString name="ycircumflex">
          43 callsubr
          -91 -905 -81 callgsubr
        </CharString>
        <CharString name="ycircumflex.loclGUA">
          7 callsubr
          30 -905 -79 callsubr
        </CharString>
        <CharString name="ydieresis">
          -183 113 3 callgsubr
          -183 -905 -81 callgsubr
        </CharString>
        <CharString name="ydieresis.loclGUA">
          32 callsubr
          -62 -905 -79 callsubr
        </CharString>
        <CharString name="yen">
          239 hmoveto
          88 169 189 65 -189 70 189 65 -164 hlineto
          0 29 39 27 45 vhcurveto
          140 233 rlineto
          -93 hlineto
          -109 -192 rlineto
          -28 -50 -28 -58 0 vvcurveto
          -4 hlineto
          0 -22 51 -36 58 vhcurveto
          -118 191 rlineto
          -103 hlineto
          148 -233 rlineto
          25 -40 34 -44 0 vvcurveto
          -174 -65 199 -70 -199 -65 199 hlineto
          endchar
        </CharString>
        <CharString name="ygrave">
          -183 212 -10 callgsubr
          13 -902 -81 callgsubr
        </CharString>
        <CharString name="ygrave.loclGUA">
          38 callgsubr
          134 -902 -79 callsubr
        </CharString>
        <CharString name="z">
          -183 24 hmoveto
          -43 callgsubr
          endchar
        </CharString>
        <CharString name="zacute">
          28 callsubr
          -274 5 callgsubr
        </CharString>
        <CharString name="zacute.loclPLK">
          57 callgsubr
          -214 5 callgsubr
        </CharString>
        <CharString name="zcaron">
          40 callsubr
          -78 5 callgsubr
        </CharString>
        <CharString name="zdotaccent">
          -183 206 66 callgsubr
          -182 5 callgsubr
        </CharString>
        <CharString name="zero">
          278 -12 rmoveto
          150 91 76 279 279 -91 76 -150 -151 -90 -76 -279 -279 90 -76 151 73 callgsubr
          -122 -28 104 178 hvcurveto
          10 vlineto
          172 28 100 122 122 28 -104 -178 vhcurveto
          -10 vlineto
          -172 -28 -100 -122 vhcurveto
          endchar
        </CharString>
      <CharString index="0">
        rmoveto
        -30 callgsubr
        -45 10 32 -30 46 hhcurveto
        33 24 7 5 11 -106 callgsubr
        hvcurveto
        23 73 -81 callsubr
        return
      </CharString>
      <CharString index="1">
        hvcurveto
        57 -40 vlineto
        -18 -17 10 25 hvcurveto
        285 vlineto
        99 -67 58 -133 -51 callsubr
        vhcurveto
        -35 callsubr
        23 -25 callgsubr
        -148 -31 -145 -127 108 -21 66 return
      </CharString>
      <CharString index="2">
        -106 callsubr
        endchar
      </CharString>
      <CharString index="3">
        rmoveto
        -17 callsubr
        -73 callsubr
        73 callgsubr
        3 callsubr
        hvcurveto
        -77 callsubr
        vhcurveto
        return
      </CharString>
      <CharString index="4">
        -105 callsubr
        endchar
      </CharString>
      <CharString index="5">
        -104 callgsubr
        endchar
      </CharString>
      <CharString index="6">
        rmoveto
        -30 callsubr
        -100 callgsubr
        return
      </CharString>
      <CharString index="7">
        50 43 -31 56 hhcurveto
        60 25 48 56 hvcurveto
        -65 hlineto
        -23 -2 -11 -8 -15 -50 -43 31 -56 hhcurveto
        -60 -25 -48 -56 hvcurveto
        return
      </CharString>
      <CharString index="8">
        -735 -107 callsubr
      </CharString>
      <CharString index="9">
        -100 callsubr
        endchar
      </CharString>
      <CharString index="10">
        -880 -105 callgsubr
      </CharString>
      <CharString index="11">
        rmoveto
        -94 callsubr
        -12 -8 -6 -21 hvcurveto
        -13 hlineto
        return
      </CharString>
      <CharString index="12">
        rmoveto
        -98 callsubr
      </CharString>
      <CharString index="13">
        rmoveto
        112 34 62 55 hvcurveto
        -61 hlineto
        -22 -3 -18 -31 -64 hhcurveto
        -64 -15 31 22 -5 hvcurveto
        -61 hlineto
        -55 33 -62 60 callsubr
        return
      </CharString>
      <CharString index="14">
        -88 callsubr
        106 -80 175 return
      </CharString>
      <CharString index="15">
        -735 -103 callgsubr
      </CharString>
      <CharString index="16">
        -94 callgsubr
        -67 -78 callgsubr
        return
      </CharString>
      <CharString index="17">
        -83 callsubr
        -27 callsubr
        return
      </CharString>
      <CharString index="18">
        57 -79 rlineto
        90 hlineto
        -105 135 rlineto
        -84 hlineto
        return
      </CharString>
      <CharString index="19">
        -7 callsubr
        108 -67 callgsubr
        return
      </CharString>
      <CharString index="20">
        18 callsubr
        117 -214 -78 callsubr
        return
      </CharString>
      <CharString index="21">
        -101 callsubr
        -26 -99 callgsubr
      </CharString>
      <CharString index="22">
        244 -454 -85 164 vvcurveto
        66 73 30 101 96 71 -39 -70 vhcurveto
        -15 93 12 vlineto
        137 -117 56 -146 -147 -120 -58 -126 vhcurveto
        -248 455 93 -176 vvcurveto
        -74 -69 -40 -125 -108 -77 40 84 vhcurveto
        6 2 14 1 vvcurveto
        -94 hlineto
        -3 -1 -10 -7 vvcurveto
        return
      </CharString>
      <CharString index="23">
        -91 callsubr
        endchar
      </CharString>
      <CharString index="24">
        -905 -104 callsubr
      </CharString>
      <CharString index="25">
        -86 hlineto
        -85 -64 -33 -77 -105 -49 57 121 -6 vhcurveto
        387 44 hlineto
        183 -79 72 -148 return
      </CharString>
      <CharString index="26">
        -86 callsubr
        endchar
      </CharString>
      <CharString index="27">
        rmoveto
        84 hlineto
        -72 callgsubr
        return
      </CharString>
      <CharString index="28">
        23 callgsubr
        -13 -49 -41 -27 -67 -11 rrcurveto
        32 -39 -54 15 -67 hhcurveto
        -61 callgsubr
        -17 callsubr
        77 -14 60 -27 44 hvcurveto
        97 27 49 66 95 vvcurveto
        54 vlineto
        -196 -427 rmoveto
        33 callgsubr
        -66 callsubr
        return
      </CharString>
      <CharString index="29">
        -618 -107 callgsubr
        return
      </CharString>
      <CharString index="30">
        rmoveto
        80 216 45 122 rlineto
        5 hlineto
        46 -124 80 -214 rlineto
        return
      </CharString>
      <CharString index="31">
        -101 callsubr
        42 -97 callgsubr
      </CharString>
      <CharString index="32">
        rmoveto
        172 123 81 177 hvcurveto
        47 callgsubr
        -160 -76 78 196 vhcurveto
        -46 callsubr
        -238 114 -117 220 vhcurveto
        endchar
      </CharString>
      <CharString index="33">
        -880 -95 callgsubr
      </CharString>
      <CharString index="34">
        -101 callsubr
        54 -92 callgsubr
      </CharString>
      <CharString index="35">
        105 135 60 callgsubr
        -57 -79 -58 79 60 callgsubr
        return
      </CharString>
      <CharString index="36">
        619 -101 callgsubr
        return
      </CharString>
      <CharString index="37">
        rmoveto
        61 hlineto
        22 5 15 31 64 hhcurveto
        64 18 -31 -22 3 hvcurveto
        61 hlineto
        55 -34 62 -112 -112 -33 -62 -55 vhcurveto
        return
      </CharString>
      <CharString index="38">
        97 hlineto
        75 314 rlineto
        7 29 16 79 0 vvcurveto
        4 hlineto
        0 17 -78 7 -30 vhcurveto
        76 -314 rlineto
        96 hlineto
        158 526 rlineto
        -86 hlineto
        -80 -298 rlineto
        -9 -33 -21 -91 8 callsubr
        -20 96 -7 28 vhcurveto
        -73 298 rlineto
        -107 hlineto
        -69 -298 -26 -124 95 callsubr
        0 -23 96 -8 28 vhcurveto
        -81 298 rlineto
        -91 hlineto
        endchar
      </CharString>
      <CharString index="39">
        -94 callgsubr
        -326 -40 callgsubr
        return
      </CharString>
      <CharString index="40">
        129 90 callgsubr
        return
      </CharString>
      <CharString index="41">
        rmoveto
        87 95 -87 hlineto
        return
      </CharString>
      <CharString index="42">
        18 callgsubr
        -3 -90 callsubr
        6 callsubr
        vhcurveto
        -13 callgsubr
        491 hlineto
        78 31 39 62 85 vvcurveto
        54 vlineto
        return
      </CharString>
      <CharString index="43">
        rmoveto
        -74 callsubr
        return
      </CharString>
      <CharString index="44">
        98 hlineto
        67 183 rlineto
        318 hlineto
        69 -183 rlineto
        return
      </CharString>
      <CharString index="45">
        -47 callsubr
        -64 48 -100 -72 -64 -24 -59 -41 vhcurveto
        36 callgsubr
        return
      </CharString>
      <CharString index="46">
        -159 -84 -32 callgsubr
        84 -86 159 return
      </CharString>
      <CharString index="47">
        rmoveto
        150 58 97 110 hvcurveto
        -85 hlineto
        -87 -33 -47 -90 -99 -42 56 142 vhcurveto
        4 vlineto
        145 45 57 96 92 26 -43 -91 vhcurveto
        90 hlineto
        134 -61 73 -147 -158 -74 -32 callgsubr
        72 -86 160 vhcurveto
        endchar
      </CharString>
      <CharString index="48">
        -880 -89 callsubr
        endchar
      </CharString>
      <CharString index="49">
        -66 callgsubr
        187 -95 -66 callgsubr
        return
      </CharString>
      <CharString index="50">
        39 642 868 -65 callsubr
        return
      </CharString>
      <CharString index="51">
        rmoveto
        90 38 48 61 33 -19 31 -34 18 hvcurveto
        26 18 18 29 28 vvcurveto
        58 -40 46 -79 -79 -40 -46 -58 -29 17 -28 28 -18 vhcurveto
        -38 -18 -15 -30 -34 vvcurveto
        -61 37 -48 90 vhcurveto
        217 vmoveto
        -34 -22 18 31 31 21 18 35 35 21 -18 -31 -31 -21 -18 -35 hvcurveto
        -162 vmoveto
        -42 -22 20 34 33 22 19 42 42 22 -19 -33 -34 -22 -20 -42 hvcurveto
        endchar
      </CharString>
      <CharString index="52">
        95 284 hlineto
        270 402 92 callgsubr
        hlineto
        -203 -314 95 callsubr
        -204 314 rlineto
        -115 hlineto
        271 -402 rlineto
        return
      </CharString>
      <CharString index="53">
        -735 -84 callsubr
        endchar
      </CharString>
      <CharString index="54">
        -58 callgsubr
        -51 -74 callgsubr
      </CharString>
      <CharString index="55">
        -55 callgsubr
        endchar
      </CharString>
      <CharString index="56">
        -14 callsubr
        endchar
      </CharString>
      <CharString index="57">
        129 91 callsubr
        return
      </CharString>
      <CharString index="58">
        67 callsubr
        -37 16 hvcurveto
        2 vlineto
        30 -53 callsubr
        return
      </CharString>
      <CharString index="59">
        591 -88 callgsubr
        return
      </CharString>
      <CharString index="60">
        -64 callgsubr
        endchar
      </CharString>
      <CharString index="61">
        rmoveto
        -52 callgsubr
      </CharString>
      <CharString index="62">
        588 -101 callsubr
        return
      </CharString>
      <CharString index="63">
        733 -80 callgsubr
        return
      </CharString>
      <CharString index="64">
        451 73 -323 hlineto
        306 407 rlineto
        46 -413 -73 284 vlineto
        -305 -406 rlineto
        return
      </CharString>
      <CharString index="65">
        114 -71 callgsubr
        return
      </CharString>
      <CharString index="66">
        -18 callsubr
        95 -603 -23 callsubr
        return
      </CharString>
      <CharString index="67">
        -751 -102 callsubr
        return
      </CharString>
      <CharString index="68">
        -214 -128 -10 callsubr
        return
      </CharString>
      <CharString index="69">
        736 -96 callgsubr
        return
      </CharString>
      <CharString index="70">
        606 -70 callgsubr
        return
      </CharString>
      <CharString index="71">
        62 callgsubr
        99 62 35 67 39 callsubr
        -72 -35 -47 -44 -17 vhcurveto
        -6 hlineto
        -10 79 rlineto
        -67 hlineto
        return
      </CharString>
      <CharString index="72">
        214 129 117 238 return
      </CharString>
      <CharString index="73">
        -723 rmoveto
        -69 callgsubr
      </CharString>
      <CharString index="74">
        243 -12 rmoveto
        26 callgsubr
        723 -88 -257 -8 callgsubr
        hvcurveto
        return
      </CharString>
      <CharString index="75">
        -86 -189 -189 return
      </CharString>
      <CharString index="76">
        -101 callsubr
        -213 -3 callsubr
        return
      </CharString>
      <CharString index="77">
        75 65 30 49 36 36 callsubr
        return
      </CharString>
      <CharString index="78">
        566 83 -422 hlineto
        413 554 rlineto
        49 -531 -83 386 vlineto
        -412 -554 rlineto
        return
      </CharString>
      <CharString index="79">
        -66 callgsubr
        endchar
      </CharString>
      <CharString index="80">
        751 -70 callgsubr
        return
      </CharString>
      <CharString index="81">
        -40 callsubr
        -68 -623 -107 callsubr
      </CharString>
      <CharString index="82">
        -39 -56 vhcurveto
        -58 vlineto
        -202 return
      </CharString>
      <CharString index="83">
        48 callgsubr
        -44 -4 callgsubr
      </CharString>
      <CharString index="84">
        254 hlineto
        214 129 105 55 callgsubr
        105 -214 hvcurveto
        return
      </CharString>
      <CharString index="85">
        17 callsubr
        345 17 callgsubr
        -353 hlineto
        return
      </CharString>
      <CharString index="86">
        151 108 -12 0 callgsubr
        -603 -370 -1 callgsubr
        return
      </CharString>
      <CharString index="87">
        751 -94 callgsubr
        return
      </CharString>
      <CharString index="88">
        -195 -93 -75 -152 return
      </CharString>
      <CharString index="89">
        rlineto
        51 hlineto
        30 9 -8 -16 -19 -16 -5 -25 hvcurveto
        -100 -49 hlineto
        -5 27 36 -3 32 hhcurveto
        return
      </CharString>
      <CharString index="90">
        -868 rmoveto
        -39 callsubr
      </CharString>
      <CharString index="91">
        rmoveto
        85 hlineto
        62 81 rlineto
        -30 53 65 -14 77 hhcurveto
        -35 callgsubr
        120 -33 90 -61 59 hvcurveto
        94 123 rlineto
        -84 hlineto
        -63 -83 rlineto
        31 -53 -66 15 -77 101 callgsubr
        -121 33 -90 61 -59 hvcurveto
        56 74 rmoveto
        -34 44 -18 63 89 vvcurveto
        4 vlineto
        195 93 75 151 56 48 -11 -23 39 vhcurveto
        -143 -514 rmoveto
        -56 -47 10 23 -38 hvcurveto
        334 436 rlineto
        33 -44 19 -63 -88 vvcurveto
        97 callgsubr
      </CharString>
      <CharString index="92">
        45 hlineto
        43 88 rlineto
        84 -88 -91 37 vlineto
        endchar
      </CharString>
      <CharString index="93">
        -698 -37 callsubr
      </CharString>
      <CharString index="94">
        7 hlineto
        10 -71 rlineto
        67 return
      </CharString>
      <CharString index="95">
        rmoveto
        -15 callgsubr
      </CharString>
      <CharString index="96">
        rmoveto
        -12 -8 -6 -21 vhcurveto
        -13 -61 -94 callsubr
        hvcurveto
        return
      </CharString>
      <CharString index="97">
        591 -60 callsubr
        return
      </CharString>
      <CharString index="98">
        -2 callsubr
        77 -132 -2 callsubr
        return
      </CharString>
      <CharString index="99">
        -6 hlineto
        51 -35 -51 21 -74 hhcurveto
        -119 -81 -84 -191 -193 79 -82 129 return
      </CharString>
      <CharString index="100">
        -7 callsubr
        48 -67 callgsubr
        return
      </CharString>
      <CharString index="101">
        rmoveto
        -36 callgsubr
        endchar
      </CharString>
      <CharString index="102">
        62 callgsubr
        -47 callsubr
        -65 48 -99 -72 -57 -23 -48 -37 vhcurveto
        -7 return
      </CharString>
      <CharString index="103">
        -57 hlineto
        -6 17 28 -6 24 hhcurveto
        endchar
      </CharString>
      <CharString index="104">
        31 16 17 33 vhcurveto
        14 callgsubr
        -77 -73 77 return
      </CharString>
      <CharString index="105">
        736 -60 callsubr
        return
      </CharString>
      <CharString index="106">
        rmoveto
        231 56 -80 302 -30 hlineto
        -34 -19 -54 -14 -33 -4 rrcurveto
        -40 88 -225 -88 vlineto
        return
      </CharString>
      <CharString index="107">
        rmoveto
        72 hlineto
        546 710 rlineto
        -72 hlineto
        return
      </CharString>
      <CharString index="108">
        1 callsubr
        -41 return
      </CharString>
      <CharString index="109">
        -106 callsubr
        -44 -242 -28 callgsubr
      </CharString>
      <CharString index="110">
        628 -58 callgsubr
        return
      </CharString>
      <CharString index="111">
        -140 -46 -58 -106 return
      </CharString>
      <CharString index="112">
        -723 -20 callsubr
      </CharString>
      <CharString index="113">
        -18 callsubr
        666 -686 rmoveto
        -29 callgsubr
        -571 34 -23 callsubr
        endchar
      </CharString>
      <CharString index="114">
        -16 306 -38 callgsubr
        return
      </CharString>
      <CharString index="115">
        236 -45 callsubr
        return
      </CharString>
      <CharString index="116">
        54 368 -12 rmoveto
        196 159 159 196 196 -159 159 -196 -196 -159 -159 -196 -196 159 -159 196 hvcurveto
        47 vmoveto
        -169 -137 138 170 170 137 138 169 169 137 -138 -170 -170 -137 -138 -169 hvcurveto
        return
      </CharString>
      <CharString index="117">
        240 -48 callgsubr
        return
      </CharString>
      <CharString index="118">
        hlineto
        -3 callgsubr
        vlineto
        return
      </CharString>
      <CharString index="119">
        -3 callsubr
        endchar
      </CharString>
      <CharString index="120">
        rmoveto
        10 callsubr
        return
      </CharString>
      <CharString index="121">
        52 61 hlineto
        7 -18 -30 5 -27 hhcurveto
        -90 -24 -61 -60 hvcurveto
        -84 return
      </CharString>
      <CharString index="122">
        86 hmoveto
        88 453 101 73 -101 84 11 callgsubr
        return
      </CharString>
      <CharString index="123">
        277 -29 callsubr
        return
      </CharString>
      <CharString index="124">
        89 73 -89 146 -68 vlineto
        -19 -146 rlineto
        -65 -73 64 return
      </CharString>
      <CharString index="125">
        23 callgsubr
        -14 -53 -46 -27 -75 -9 rrcurveto
        return
      </CharString>
      <CharString index="126">
        -16 186 -33 callsubr
        return
      </CharString>
      <CharString index="127">
        -31 callsubr
        -315 14 -24 callsubr
        endchar
      </CharString>
      <CharString index="128">
        rmoveto
        -97 -39 71 127 98 callsubr
        130 40 72 96 99 40 -52 -150 vhcurveto
        -4 vlineto
        -147 -39 -51 -100 vhcurveto
        endchar
      </CharString>
      <CharString index="129">
        -19 callgsubr
        -15 callsubr
        vhcurveto
        return
      </CharString>
      <CharString index="130">
        rmoveto
        -108 53 vlineto
        return
      </CharString>
      <CharString index="131">
        -102 callsubr
        -169 -439 -28 callgsubr
      </CharString>
      <CharString index="132">
        rmoveto
        34 callsubr
      </CharString>
      <CharString index="133">
        68 60 28 55 35 hvcurveto
        6 hlineto
        11 -71 rlineto
        66 return
      </CharString>
      <CharString index="134">
        66 callsubr
        rlineto
        return
      </CharString>
      <CharString index="135">
        -107 77 -173 rmoveto
        88 122 hlineto
        63 vlineto
        -16 26 31 -8 36 hhcurveto
        65 57 26 57 38 69 callgsubr
        vlineto
        endchar
      </CharString>
      <CharString index="136">
        -16 197 2 callsubr
        return
      </CharString>
      <CharString index="137">
        -191 -1 -93 -67 -151 hhcurveto
        return
      </CharString>
      <CharString index="138">
        rmoveto
        35 callgsubr
        return
      </CharString>
      <CharString index="139">
        94 callsubr
        -44 callsubr
        return
      </CharString>
      <CharString index="140">
        4 callgsubr
        3 callsubr
        vhcurveto
        return
      </CharString>
      <CharString index="141">
        72 callsubr
        endchar
      </CharString>
      <CharString index="142">
        100 108 -100 hlineto
        return
      </CharString>
      <CharString index="143">
        -7 hlineto
        -10 71 rlineto
        -67 return
      </CharString>
      <CharString index="144">
        72 callsubr
        411 -14 callgsubr
      </CharString>
      <CharString index="145">
        240 -10 callgsubr
        return
      </CharString>
      <CharString index="146">
        772 0 callsubr
        return
      </CharString>
      <CharString index="147">
        rmoveto
        63 82 45 56 -45 176 -41 hlineto
        -8 -36 -6 -21 -8 -23 rrcurveto
        -96 -95 vlineto
        25 43 45 97 19 86 rrcurveto
        -66 hlineto
        -19 -87 -29 -74 -38 -70 rrcurveto
        -51 158 vlineto
        endchar
      </CharString>
      <CharString index="148">
        rmoveto
        90 callgsubr
        -86 -132 rlineto
        75 hlineto
        return
      </CharString>
      <CharString index="149">
        526 -88 return
      </CharString>
      <CharString index="150">
        90 51 41 139 139 -51 42 -90 -90 -52 -42 -139 -138 52 -42 90 hvcurveto
        return
      </CharString>
      <CharString index="151">
        -16 292 -44 callgsubr
        return
      </CharString>
      <CharString index="152">
        566 -40 callsubr
        return
      </CharString>
      <CharString index="153">
        rmoveto
        -41 callsubr
        108 -129 rlineto
        return
      </CharString>
      <CharString index="154">
        -93 hlineto
        -119 -79 -58 -123 return
      </CharString>
      <CharString index="155">
        -31 -16 -17 -31 vhcurveto
        return
      </CharString>
      <CharString index="156">
        79 hmoveto
        -61 callsubr
        return
      </CharString>
      <CharString index="157">
        68 callgsubr
        -22 -905 -48 callsubr
      </CharString>
      <CharString index="158">
        rmoveto
        71 hlineto
        157 200 -157 200 rlineto
        -71 hlineto
        129 -200 rlineto
        return
      </CharString>
      <CharString index="159">
        -96 callgsubr
        27 return
      </CharString>
      <CharString index="160">
        88 42 callgsubr
        hlineto
        return
      </CharString>
      <CharString index="161">
        603 58 callsubr
        return
      </CharString>
      <CharString index="162">
        238 18 callsubr
        return
      </CharString>
      <CharString index="163">
        31 callgsubr
        endchar
      </CharString>
      <CharString index="164">
        -183 212 21 callsubr
        return
      </CharString>
      <CharString index="165">
        -16 181 39 callgsubr
        return
      </CharString>
      <CharString index="166">
        -74 callsubr
        211 -859 -28 callgsubr
      </CharString>
      <CharString index="167">
        rlineto
        -90 hlineto
        return
      </CharString>
      <CharString index="168">
        rmoveto
        100 108 -40 hlineto
        40 134 rlineto
        -52 hlineto
        -48 -143 rlineto
        return
      </CharString>
      <CharString index="169">
        85 callgsubr
        hlineto
        return
      </CharString>
      <CharString index="170">
        125 27 callsubr
        return
      </CharString>
      <CharString index="171">
        433 -95 return
      </CharString>
      <CharString index="172">
        206 -18 rlineto
        93 vlineto
        -206 -17 17 102 callgsubr
        -88 hlineto
        17 -197 -205 17 rlineto
        -93 vlineto
        205 18 return
      </CharString>
      <CharString index="173">
        628 -66 callgsubr
        return
      </CharString>
      <CharString index="174">
        rmoveto
        21 hlineto
        163 102 callgsubr
        42 vlineto
        -137 -58 rlineto
        return
      </CharString>
      <CharString index="175">
        rmoveto
        88 98 -88 hlineto
        return
      </CharString>
      <CharString index="176">
        hvcurveto
        -13 callgsubr
        42 callgsubr
        87 callsubr
        return
      </CharString>
      <CharString index="177">
        68 callgsubr
        -723 vmoveto
        53 callgsubr
        return
      </CharString>
      <CharString index="178">
        -88 callgsubr
        -49 return
      </CharString>
      <CharString index="179">
        20 20 5 9 21 return
      </CharString>
      <CharString index="180">
        hvcurveto
        73 vmoveto
        return
      </CharString>
      <CharString index="181">
        rmoveto
        95 56 41 139 139 -56 42 -95 -95 -57 -42 -139 -138 57 -42 95 hvcurveto
        return
      </CharString>
      <CharString index="182">
        vhcurveto
        62 25 hlineto
        30 16 26 47 45 10 -28 -20 return
      </CharString>
      <CharString index="183">
        92 callsubr
        -95 return
      </CharString>
      <CharString index="184">
        -161 -28 callgsubr
      </CharString>
      <CharString index="185">
        rmoveto
        77 hlineto
        52 168 91 callsubr
        -100 hlineto
        return
      </CharString>
      <CharString index="186">
        -182 30 callsubr
        return
      </CharString>
      <CharString index="187">
        88 723 -88 hlineto
        return
      </CharString>
      <CharString index="188">
        83 213 195 84 -195 214 -83 -214 -194 -84 194 hlineto
        return
      </CharString>
      <CharString index="189">
        rmoveto
        62 hlineto
        26 515 rlineto
        -114 hlineto
        return
      </CharString>
      <CharString index="190">
        hvcurveto
        90 callsubr
        return
      </CharString>
      <CharString index="191">
        -516 -226 -12 0 callgsubr
        endchar
      </CharString>
      <CharString index="192">
        88 311 return
      </CharString>
      <CharString index="193">
        191 -81 84 -119 -74 -51 -21 -51 -35 hvcurveto
        -6 257 -88 return
      </CharString>
      <CharString index="194">
        vvcurveto
        74 -51 31 -66 -69 -60 -33 -80 return
      </CharString>
      <CharString index="195">
        60 callsubr
        endchar
      </CharString>
      <CharString index="196">
        137 rlineto
        -42 hlineto
        -197 -163 rlineto
        -21 vlineto
        endchar
      </CharString>
      <CharString index="197">
        -1 3 49 callsubr
        return
      </CharString>
      <CharString index="198">
        hvcurveto
        64 callgsubr
        return
      </CharString>
      <CharString index="199">
        rlineto
        -109 return
      </CharString>
      <CharString index="200">
        vlineto
        -137 58 rlineto
        -42 vlineto
        return
      </CharString>
      <CharString index="201">
        rrcurveto
        -50 -37 -53 -38 -62 vvcurveto
        return
      </CharString>
      <CharString index="202">
        -182 rmoveto
        return
      </CharString>
      <CharString index="203">
        hlineto
        47 212 rlineto
        -77 hlineto
        -47 -212 rlineto
        return
      </CharString>
      <CharString index="204">
        100 callsubr
        endchar
      </CharString>
      <CharString index="205">
        vlineto
        -2 -1 return
      </CharString>
      <CharString index="206">
        113 hvcurveto
        return
      </CharString>
      <CharString index="207">
        hlineto
        -266 53 callsubr
        -121 hlineto
        return
      </CharString>
      <CharString index="208">
        hhcurveto
        -39 callgsubr
        return
      </CharString>
      <CharString index="209">
        197 rlineto
        return
      </CharString>
      <CharString index="210">
        317 239 79 rmoveto
        42 hlineto
        return
      </CharString>
      <CharString index="211">
        472 83 -472 hlineto
        endchar
      </CharString>
</ttFont>
